<svg width="21" height="21" viewBox="0 0 21 21" fill="none" xmlns="http://www.w3.org/2000/svg">
<path d="M8.53418 0.359253C9.34907 -0.12003 10.3599 -0.119976 11.1748 0.359253L17.4258 4.03601C18.2211 4.50396 18.709 5.35837 18.709 6.28113V13.7186C18.709 14.6414 18.221 15.4958 17.4258 15.9637L11.1748 19.6405C10.3598 20.1198 9.34911 20.1198 8.53418 19.6405L2.28418 15.9637C1.48873 15.4958 1 14.6415 1 13.7186V6.28113C1 5.35826 1.48873 4.50392 2.28418 4.03601L8.53418 0.359253ZM10.1895 10.995C10.1894 10.6728 9.83964 10.4719 9.56152 10.6346L5.6748 12.9091C5.32091 13.1161 5.31331 13.5298 5.66699 13.7372C6.60666 14.2882 8.31035 15.2681 9.56641 15.9872C9.8444 16.1463 10.1895 15.9442 10.1895 15.6239V10.995ZM10.8213 4.41492C10.5433 4.24819 10.1895 4.44814 10.1895 4.77234V10.0272C10.1895 10.1754 10.2686 10.3127 10.3965 10.3876L14.7773 12.951C15.0554 13.1134 15.4053 12.9128 15.4053 12.5907V7.40125C15.4053 7.25469 15.3278 7.11825 15.2021 7.04285L10.8213 4.41492Z" fill="#F0F6FC" fill-opacity="0.6"/>
</svg>
