<svg width="123" height="123" viewBox="0 0 123 123" fill="none" xmlns="http://www.w3.org/2000/svg">
<path fill-rule="evenodd" clip-rule="evenodd" d="M53.3639 2.20015C58.3509 -0.733383 64.5362 -0.733383 69.5232 2.20015L107.768 24.6973C112.636 27.5605 115.624 32.7857 115.624 38.4327V83.9462C115.624 89.5932 112.636 94.8184 107.768 97.6816L69.5232 120.179C64.5362 123.112 58.3509 123.112 53.3639 120.179L15.1187 97.6816C10.2514 94.8184 7.26282 89.5932 7.26282 83.9462V38.4327C7.26282 32.7857 10.2514 27.5605 15.1187 24.6973L53.3639 2.20015Z" fill="url(#paint0_linear_1266_7484)"/>
<g clip-path="url(#clip0_1266_7484)">
<path d="M61.1909 60.197V28.0429C61.1909 26.0586 63.3557 24.8329 65.0573 25.8538L91.8625 41.937C92.6315 42.3984 93.102 43.2294 93.102 44.1261V75.8838C93.102 77.8557 90.9616 79.0831 89.2597 78.0871L62.4544 62.4003C61.6718 61.9423 61.1909 61.1037 61.1909 60.197Z" fill="white"/>
<path d="M57.3776 96.6631C49.6914 92.2626 39.2643 86.2702 33.5147 82.8987C31.3506 81.6296 31.3965 79.0977 33.562 77.8309L57.349 63.9153C59.0508 62.9197 61.1909 64.1471 61.1909 66.1188V94.4452C61.1909 96.4054 59.0787 97.637 57.3776 96.6631Z" fill="white"/>
</g>
<defs>
<linearGradient id="paint0_linear_1266_7484" x1="115.624" y1="0" x2="-5.85467" y2="107.565" gradientUnits="userSpaceOnUse">
<stop stop-color="#D15DF7"/>
<stop offset="1" stop-color="#3B98FF"/>
</linearGradient>
<clipPath id="clip0_1266_7484">
<rect width="63.8221" height="75.3101" fill="white" transform="translate(29.2776 23.5337)"/>
</clipPath>
</defs>
</svg>
