<svg width="14" height="14" viewBox="0 0 14 14" fill="none" xmlns="http://www.w3.org/2000/svg">
<path d="M4.96858 9.66106H1.93227M3.58844 6.62475H1.10419M4.96858 3.58845H2.2083M9.38503 1.65625L5.74342 6.75449C5.58224 6.98014 5.50165 7.09297 5.50514 7.18704C5.50818 7.26893 5.54745 7.34525 5.61233 7.39532C5.68685 7.45284 5.8255 7.45284 6.10281 7.45284H8.83297L8.28091 11.5933L11.9225 6.49501C12.0837 6.26936 12.1643 6.15654 12.1608 6.06247C12.1578 5.98057 12.1185 5.90426 12.0536 5.85418C11.9791 5.79667 11.8404 5.79667 11.5631 5.79667H8.83297L9.38503 1.65625Z" stroke="#9B4EFF" stroke-width="0.903364" stroke-linecap="round" stroke-linejoin="round"/>
<path d="M9.38475 1.65625L5.74315 6.75449C5.58197 6.98014 5.50138 7.09297 5.50487 7.18704C5.50791 7.26893 5.54718 7.34525 5.61206 7.39532C5.68658 7.45284 5.82523 7.45284 6.10253 7.45284H8.8327L8.28064 11.5933L11.9222 6.49501C12.0834 6.26936 12.164 6.15654 12.1605 6.06247C12.1575 5.98057 12.1182 5.90426 12.0533 5.85418C11.9788 5.79667 11.8402 5.79667 11.5629 5.79667H8.8327L9.38475 1.65625Z" fill="url(#paint0_linear_2470_7920)" stroke="url(#paint1_linear_2470_7920)" stroke-width="0.903364" stroke-linecap="round" stroke-linejoin="round"/>
<defs>
<linearGradient id="paint0_linear_2470_7920" x1="5.70771" y1="1.65625" x2="11.9577" y2="11.5933" gradientUnits="userSpaceOnUse">
<stop stop-color="#9B4EFF"/>
<stop offset="1" stop-color="#C75FFF"/>
</linearGradient>
<linearGradient id="paint1_linear_2470_7920" x1="6.22338" y1="1.65625" x2="11.442" y2="11.5933" gradientUnits="userSpaceOnUse">
<stop stop-color="#9B4EFF"/>
<stop offset="1" stop-color="#C75FFF"/>
</linearGradient>
</defs>
</svg>
