<svg width="14" height="14" viewBox="0 0 14 14" fill="none" xmlns="http://www.w3.org/2000/svg">
<g clip-path="url(#clip0_2470_7925)">
<path d="M7.01027 11.9326C8.0857 11.3052 11.0414 9.33436 11.0414 6.62462V3.98447C11.0414 3.54309 11.0414 3.32241 10.9692 3.1327C10.9054 2.96512 10.8018 2.81559 10.6673 2.69704C10.515 2.56284 10.3084 2.48535 9.8951 2.33037L6.93509 1.22037C6.82032 1.17733 6.76293 1.15581 6.7039 1.14728C6.65153 1.13971 6.59835 1.13971 6.54599 1.14728C6.48695 1.15581 6.42957 1.17733 6.3148 1.22037L3.35479 2.33037C2.94151 2.48535 2.73488 2.56284 2.5826 2.69704C2.44808 2.81559 2.34445 2.96512 2.28068 3.1327C2.2085 3.32241 2.2085 3.54309 2.2085 3.98447V6.62462C2.2085 9.33436 5.16418 11.3052 6.23961 11.9326C6.36183 12.0039 6.42294 12.0395 6.50919 12.058C6.57612 12.0724 6.67377 12.0724 6.7407 12.058C6.82694 12.0395 6.88805 12.0039 7.01027 11.9326Z" fill="url(#paint0_linear_2470_7925)"/>
<path d="M4.96878 6.34859L6.07289 7.4527L8.55714 4.96845M11.0414 6.62462C11.0414 9.33435 8.0857 11.3052 7.01027 11.9326C6.88805 12.0039 6.82694 12.0395 6.7407 12.058C6.67377 12.0724 6.57612 12.0724 6.50919 12.058C6.42294 12.0395 6.36183 12.0039 6.23961 11.9326C5.16418 11.3052 2.2085 9.33436 2.2085 6.62462V3.98447C2.2085 3.54309 2.2085 3.32241 2.28068 3.1327C2.34445 2.96512 2.44808 2.81559 2.5826 2.69704C2.73488 2.56284 2.94151 2.48535 3.35479 2.33037L6.3148 1.22037C6.42957 1.17733 6.48695 1.15581 6.54599 1.14728C6.59835 1.13971 6.65153 1.13971 6.7039 1.14728C6.76293 1.15581 6.82032 1.17733 6.93509 1.22037L9.8951 2.33037C10.3084 2.48535 10.515 2.56284 10.6673 2.69704C10.8018 2.81559 10.9054 2.96512 10.9692 3.1327C11.0414 3.32241 11.0414 3.54309 11.0414 3.98447V6.62462Z" stroke="url(#paint1_linear_2470_7925)" stroke-width="1.10411" stroke-linecap="round" stroke-linejoin="round"/>
<path d="M4.96863 6.34889L6.07274 7.453L8.55699 4.96875" stroke="white" stroke-width="1.10411" stroke-linecap="round" stroke-linejoin="round"/>
</g>
<defs>
<linearGradient id="paint0_linear_2470_7925" x1="2.2085" y1="2.08084" x2="11.0414" y2="11.1295" gradientUnits="userSpaceOnUse">
<stop stop-color="#9B4EFF"/>
<stop offset="1" stop-color="#C75FFF"/>
</linearGradient>
<linearGradient id="paint1_linear_2470_7925" x1="2.98127" y1="1.9878" x2="10.2684" y2="11.5936" gradientUnits="userSpaceOnUse">
<stop stop-color="#9B4EFF"/>
<stop offset="1" stop-color="#C75FFF"/>
</linearGradient>
<clipPath id="clip0_2470_7925">
<rect width="13.2493" height="13.2493" fill="white"/>
</clipPath>
</defs>
</svg>
