<svg width="20" height="21" viewBox="0 0 20 21" fill="none" xmlns="http://www.w3.org/2000/svg">
<g clip-path="url(#clip0_936_6998)">
<path d="M18.3327 8.09668H1.66602M1.66602 7.09668L1.66602 14.0967C1.66602 15.4968 1.66602 16.1969 1.9385 16.7317C2.17818 17.2021 2.56063 17.5845 3.03104 17.8242C3.56582 18.0967 4.26588 18.0967 5.66601 18.0967H14.3327C15.7328 18.0967 16.4329 18.0967 16.9677 17.8242C17.4381 17.5845 17.8205 17.2021 18.0602 16.7317C18.3327 16.1969 18.3327 15.4968 18.3327 14.0967V7.09668C18.3327 5.69655 18.3327 4.99648 18.0602 4.4617C17.8205 3.9913 17.4381 3.60885 16.9677 3.36916C16.4329 3.09668 15.7328 3.09668 14.3327 3.09668L5.66602 3.09668C4.26588 3.09668 3.56582 3.09668 3.03104 3.36916C2.56063 3.60885 2.17818 3.9913 1.9385 4.4617C1.66602 4.99648 1.66602 5.69655 1.66602 7.09668Z" stroke="#7D8292" stroke-width="1.5" stroke-linecap="round" stroke-linejoin="round"/>
<path d="M7.24677 14.7519C7.10561 14.7519 6.99386 14.7137 6.91152 14.6373C6.8331 14.5608 6.79389 14.45 6.79389 14.3048V13.9782H5.47641C5.33133 13.9782 5.21566 13.9476 5.1294 13.8865C5.04313 13.8215 5 13.7241 5 13.5942C5 13.5177 5.01764 13.4394 5.05293 13.3592C5.08822 13.2789 5.15096 13.1796 5.24115 13.0611L6.76448 10.9004C6.83114 10.8049 6.90564 10.7323 6.98798 10.6826C7.07032 10.633 7.16443 10.6081 7.2703 10.6081C7.39577 10.6081 7.49576 10.6464 7.57026 10.7228C7.64868 10.7954 7.68789 10.9062 7.68789 11.0552V13.2789H7.90551C8.0349 13.2789 8.13293 13.3095 8.19959 13.3706C8.26625 13.4279 8.29958 13.5139 8.29958 13.6285C8.29958 13.7394 8.26625 13.8253 8.19959 13.8865C8.13685 13.9476 8.03882 13.9782 7.90551 13.9782H7.68789V14.3048C7.68789 14.45 7.64868 14.5608 7.57026 14.6373C7.49576 14.7137 7.38793 14.7519 7.24677 14.7519ZM6.79389 13.2789V11.7028H6.96445L5.71167 13.4967V13.2789H6.79389Z" fill="#7D8292"/>
<path d="M9.95001 14.7633C9.44811 14.7633 9.06385 14.5819 8.79721 14.2189C8.5345 13.8521 8.40315 13.3343 8.40315 12.6657C8.40315 12.2186 8.46196 11.8423 8.57959 11.5366C8.70115 11.2271 8.87563 10.9941 9.10306 10.8374C9.3344 10.6769 9.61672 10.5967 9.95001 10.5967C10.4558 10.5967 10.8401 10.7744 11.1028 11.1297C11.3655 11.4812 11.4969 11.9932 11.4969 12.6657C11.4969 13.1127 11.4361 13.4929 11.3145 13.8062C11.1969 14.1157 11.0244 14.3526 10.797 14.5169C10.5695 14.6812 10.2872 14.7633 9.95001 14.7633ZM9.95001 14.0412C10.1774 14.0412 10.346 13.9323 10.4558 13.7145C10.5656 13.4929 10.6205 13.1433 10.6205 12.6657C10.6205 12.1881 10.5656 11.8442 10.4558 11.634C10.346 11.4239 10.1774 11.3188 9.95001 11.3188C9.72258 11.3188 9.55398 11.4239 9.44419 11.634C9.3344 11.8442 9.2795 12.1881 9.2795 12.6657C9.2795 13.1433 9.3344 13.4929 9.44419 13.7145C9.55398 13.9323 9.72258 14.0412 9.95001 14.0412Z" fill="#7D8292"/>
<path d="M13.9472 14.7519C13.806 14.7519 13.6943 14.7137 13.6119 14.6373C13.5335 14.5608 13.4943 14.45 13.4943 14.3048V13.9782H12.1768C12.0318 13.9782 11.9161 13.9476 11.8298 13.8865C11.7436 13.8215 11.7004 13.7241 11.7004 13.5942C11.7004 13.5177 11.7181 13.4394 11.7534 13.3592C11.7886 13.2789 11.8514 13.1796 11.9416 13.0611L13.4649 10.9004C13.5316 10.8049 13.6061 10.7323 13.6884 10.6826C13.7707 10.633 13.8649 10.6081 13.9707 10.6081C14.0962 10.6081 14.1962 10.6464 14.2707 10.7228C14.3491 10.7954 14.3883 10.9062 14.3883 11.0552V13.2789H14.6059C14.7353 13.2789 14.8334 13.3095 14.9 13.3706C14.9667 13.4279 15 13.5139 15 13.6285C15 13.7394 14.9667 13.8253 14.9 13.8865C14.8373 13.9476 14.7392 13.9782 14.6059 13.9782H14.3883V14.3048C14.3883 14.45 14.3491 14.5608 14.2707 14.6373C14.1962 14.7137 14.0884 14.7519 13.9472 14.7519ZM13.4943 13.2789V11.7028H13.6649L12.4121 13.4967V13.2789H13.4943Z" fill="#7D8292"/>
</g>
<defs>
<clipPath id="clip0_936_6998">
<rect width="20" height="20" fill="white" transform="matrix(1 0 0 -1 0 20.3105)"/>
</clipPath>
</defs>
</svg>
