<svg width="20" height="21" viewBox="0 0 20 21" fill="none" xmlns="http://www.w3.org/2000/svg">
<path d="M10.8327 6.31917L9.90306 4.45994C9.63552 3.92484 9.50174 3.65728 9.30216 3.46181C9.12566 3.28895 8.91295 3.15748 8.67941 3.07693C8.41532 2.98584 8.11619 2.98584 7.51792 2.98584H4.33268C3.39926 2.98584 2.93255 2.98584 2.57603 3.1675C2.26243 3.32728 2.00746 3.58225 1.84767 3.89586C1.66602 4.25238 1.66602 4.71909 1.66602 5.65251V6.31917M1.66602 6.31917H14.3327C15.7328 6.31917 16.4329 6.31917 16.9677 6.59166C17.4381 6.83134 17.8205 7.21379 18.0602 7.6842C18.3327 8.21898 18.3327 8.91904 18.3327 10.3192V13.9858C18.3327 15.386 18.3327 16.086 18.0602 16.6208C17.8205 17.0912 17.4381 17.4737 16.9677 17.7134C16.4329 17.9858 15.7328 17.9858 14.3327 17.9858H5.66602C4.26588 17.9858 3.56582 17.9858 3.03104 17.7134C2.56063 17.4737 2.17818 17.0912 1.9385 16.6208C1.66602 16.086 1.66602 15.386 1.66602 13.9858V6.31917Z" stroke="#7D8292" stroke-width="1.66667" stroke-linecap="round" stroke-linejoin="round"/>
</svg>
