<svg width="100" height="30" viewBox="0 0 100 30" fill="none" xmlns="http://www.w3.org/2000/svg">
<path d="M0 29.5319L0.736539 24.0702H2.48097C3.64393 24.0702 4.62598 23.7451 5.42713 23.0949C6.22828 22.4187 6.70638 21.5345 6.86144 20.4421L9.65254 0.468139H15.6611L12.7538 21.3394C12.547 22.8218 12.0172 24.1873 11.1644 25.4356C10.3115 26.658 9.16151 27.6463 7.71428 28.4005C6.26704 29.1547 4.53553 29.5319 2.51974 29.5319H0Z" fill="#090C25"/>
<path d="M16.649 29.5319L20.6806 0.468139H31.3411C33.2018 0.468139 34.8299 0.806241 36.2255 1.48244C37.621 2.13264 38.7065 3.10793 39.4818 4.40832C40.2829 5.70871 40.6835 7.3212 40.6835 9.24577C40.6835 11.1704 40.2312 12.8739 39.3267 14.3563C38.4222 15.8127 37.1429 16.9571 35.4889 17.7893C33.835 18.5956 31.8838 18.9987 29.6354 18.9987H24.1307L22.6577 29.5319H16.649ZM24.8673 13.7321H30.023C30.9276 13.7321 31.7158 13.5371 32.3877 13.1469C33.0855 12.7568 33.6282 12.2237 34.0159 11.5475C34.4294 10.8713 34.6361 10.104 34.6361 9.24577C34.6361 8.17945 34.2872 7.3342 33.5894 6.71001C32.9175 6.05982 32.0001 5.73472 30.8371 5.73472H25.9527L24.8673 13.7321Z" fill="#090C25"/>
<path d="M41.8237 29.5319L45.8553 0.468139H56.5157C58.3765 0.468139 60.0046 0.806241 61.4002 1.48244C62.7957 2.13264 63.8811 3.10793 64.6564 4.40832C65.4576 5.70871 65.8582 7.3212 65.8582 9.24577C65.8582 10.6242 65.6126 11.8986 65.1216 13.0689C64.6564 14.2393 63.9716 15.2536 63.0671 16.1118C62.1884 16.9701 61.1159 17.6463 59.8495 18.1404L64.6952 29.5319H58.2989L52.9106 16.58L56.5157 18.9987H49.3054L47.8323 29.5319H41.8237ZM50.0419 13.7321H55.1977C56.1022 13.7321 56.8905 13.5371 57.5624 13.1469C58.2602 12.7568 58.8029 12.2237 59.1905 11.5475C59.604 10.8713 59.8108 10.104 59.8108 9.24577C59.8108 8.17945 59.4619 7.3342 58.7641 6.71001C58.0922 6.05982 57.1747 5.73472 56.0118 5.73472H51.1274L50.0419 13.7321Z" fill="#090C25"/>
<path d="M83.8349 30C81.7416 30 79.8033 29.6489 78.0201 28.9467C76.2628 28.2445 74.7251 27.2562 73.4071 25.9818C72.1149 24.7074 71.107 23.225 70.3834 21.5345C69.6598 19.8179 69.298 17.9454 69.298 15.9168C69.298 13.6541 69.7115 11.5605 70.5384 9.63589C71.3654 7.71131 72.5155 6.03381 73.9885 4.60338C75.4616 3.14694 77.1673 2.0156 79.1056 1.20936C81.0697 0.403121 83.1888 0 85.463 0C87.5822 0 89.5205 0.351105 91.2778 1.05332C93.061 1.75553 94.5987 2.74382 95.8909 4.0182C97.2089 5.26658 98.2168 6.74902 98.9146 8.46554C99.6382 10.156 100 12.0026 100 14.0052C100 16.2679 99.5865 18.3745 98.7595 20.3251C97.9325 22.2497 96.7696 23.9402 95.2706 25.3966C93.7976 26.8531 92.079 27.9844 90.1149 28.7906C88.1766 29.5969 86.0833 30 83.8349 30ZM83.8349 24.5384C85.2305 24.5384 86.5355 24.2783 87.7502 23.7581C88.9907 23.238 90.0761 22.5098 91.0065 21.5735C91.9368 20.6372 92.6605 19.5319 93.1773 18.2575C93.72 16.9571 93.9914 15.5527 93.9914 14.0442C93.9914 12.3277 93.6167 10.8323 92.8672 9.55787C92.1436 8.25748 91.1357 7.25618 89.8435 6.55396C88.5772 5.82575 87.117 5.46164 85.463 5.46164C84.0675 5.46164 82.7495 5.72172 81.509 6.24187C80.2943 6.76203 79.2218 7.49025 78.2915 8.42653C77.3611 9.3368 76.6246 10.4291 76.0819 11.7035C75.565 12.9779 75.3066 14.3823 75.3066 15.9168C75.3066 17.6073 75.6684 19.1027 76.392 20.4031C77.1414 21.7035 78.1493 22.7178 79.4157 23.446C80.7078 24.1743 82.1809 24.5384 83.8349 24.5384Z" fill="#090C25"/>
</svg>
