<svg width="20" height="21" viewBox="0 0 20 21" fill="none" xmlns="http://www.w3.org/2000/svg">
<path d="M14.5833 15.306L5.41667 15.306M6.5 18.2227H13.5C14.9001 18.2227 15.6002 18.2227 16.135 17.9502C16.6054 17.7105 16.9878 17.328 17.2275 16.8576C17.5 16.3229 17.5 15.6228 17.5 14.2227V7.22266C17.5 5.82253 17.5 5.12246 17.2275 4.58768C16.9878 4.11727 16.6054 3.73482 16.135 3.49514C15.6002 3.22266 14.9001 3.22266 13.5 3.22266H6.5C5.09987 3.22266 4.3998 3.22266 3.86502 3.49514C3.39462 3.73482 3.01217 4.11727 2.77248 4.58768C2.5 5.12246 2.5 5.82253 2.5 7.22266V14.2227C2.5 15.6228 2.5 16.3229 2.77248 16.8576C3.01217 17.328 3.39462 17.7105 3.86502 17.9502C4.3998 18.2227 5.09987 18.2227 6.5 18.2227Z" stroke="#7D8292" stroke-width="1.5" stroke-linecap="round" stroke-linejoin="round"/>
</svg>
