<svg width="20" height="21" viewBox="0 0 20 21" fill="none" xmlns="http://www.w3.org/2000/svg">
<path d="M14.5833 5.55119L5.41667 5.55119M6.5 2.63452H13.5C14.9001 2.63452 15.6002 2.63452 16.135 2.90701C16.6054 3.14669 16.9878 3.52914 17.2275 3.99955C17.5 4.53432 17.5 5.23439 17.5 6.63452V13.6345C17.5 15.0347 17.5 15.7347 17.2275 16.2695C16.9878 16.7399 16.6054 17.1224 16.135 17.362C15.6002 17.6345 14.9001 17.6345 13.5 17.6345H6.5C5.09987 17.6345 4.3998 17.6345 3.86502 17.362C3.39462 17.1224 3.01217 16.7399 2.77248 16.2695C2.5 15.7347 2.5 15.0347 2.5 13.6345V6.63452C2.5 5.23439 2.5 4.53432 2.77248 3.99955C3.01217 3.52914 3.39462 3.14669 3.86502 2.90701C4.3998 2.63452 5.09987 2.63452 6.5 2.63452Z" stroke="#7D8292" stroke-width="1.5" stroke-linecap="round" stroke-linejoin="round"/>
</svg>
