<svg width="12" height="13" viewBox="0 0 12 13" fill="none" xmlns="http://www.w3.org/2000/svg">
<g clip-path="url(#clip0_830_7207)">
<path d="M6.00019 9.32858H6.00543M3.48406 11.6429H8.51632C9.10347 11.6429 9.39705 11.6429 9.62131 11.5308C9.81858 11.4321 9.97896 11.2748 10.0795 11.0813C10.1937 10.8612 10.1937 10.5732 10.1937 9.99715V3.00286C10.1937 2.42681 10.1937 2.13878 10.0795 1.91876C9.97896 1.72522 9.81858 1.56787 9.62131 1.46925C9.39705 1.35715 9.10347 1.35715 8.51632 1.35715H3.48406C2.89691 1.35715 2.60333 1.35715 2.37907 1.46925C2.1818 1.56787 2.02142 1.72522 1.92091 1.91876C1.80664 2.13878 1.80664 2.42681 1.80664 3.00286V9.99715C1.80664 10.5732 1.80664 10.8612 1.92091 11.0813C2.02142 11.2748 2.1818 11.4321 2.37907 11.5308C2.60333 11.6429 2.89691 11.6429 3.48406 11.6429ZM6.26229 9.32858C6.26229 9.47059 6.14494 9.58572 6.00019 9.58572C5.85544 9.58572 5.73809 9.47059 5.73809 9.32858C5.73809 9.18656 5.85544 9.07143 6.00019 9.07143C6.14494 9.07143 6.26229 9.18656 6.26229 9.32858Z" stroke="#515676" stroke-linecap="round" stroke-linejoin="round"/>
</g>
<defs>
<clipPath id="clip0_830_7207">
<rect width="11.7419" height="12" fill="white" transform="translate(0.128906 0.5)"/>
</clipPath>
</defs>
</svg>
