<svg width="20" height="21" viewBox="0 0 20 21" fill="none" xmlns="http://www.w3.org/2000/svg">
<path d="M14.5833 15.5223L5.41667 15.5223M6.5 18.439H13.5C14.9001 18.439 15.6002 18.439 16.135 18.1665C16.6054 17.9268 16.9878 17.5443 17.2275 17.0739C17.5 16.5392 17.5 15.8391 17.5 14.439V7.43896C17.5 6.03883 17.5 5.33877 17.2275 4.80399C16.9878 4.33358 16.6054 3.95113 16.135 3.71145C15.6002 3.43897 14.9001 3.43897 13.5 3.43897H6.5C5.09987 3.43897 4.3998 3.43897 3.86502 3.71145C3.39462 3.95113 3.01217 4.33358 2.77248 4.80399C2.5 5.33877 2.5 6.03883 2.5 7.43897V14.439C2.5 15.8391 2.5 16.5392 2.77248 17.0739C3.01217 17.5443 3.39462 17.9268 3.86502 18.1665C4.3998 18.439 5.09987 18.439 6.5 18.439Z" stroke="#7D8292" stroke-width="1.5" stroke-linecap="round" stroke-linejoin="round"/>
</svg>
