<svg width="20" height="21" viewBox="0 0 20 21" fill="none" xmlns="http://www.w3.org/2000/svg">
<path d="M10.8327 6.59676H4.33268C3.39926 6.59676 2.93255 6.59676 2.57603 6.77842C2.26243 6.93821 2.00746 7.19317 1.84767 7.50678C1.66602 7.8633 1.66602 8.33001 1.66602 9.26343V12.2634C1.66602 13.1968 1.66602 13.6636 1.84767 14.0201C2.00746 14.3337 2.26243 14.5887 2.57603 14.7484C2.93255 14.9301 3.39926 14.9301 4.33268 14.9301H10.8327M14.166 6.59676H15.666C16.5994 6.59676 17.0661 6.59676 17.4227 6.77842C17.7363 6.93821 17.9912 7.19317 18.151 7.50678C18.3327 7.8633 18.3327 8.33001 18.3327 9.26343V12.2634C18.3327 13.1968 18.3327 13.6636 18.151 14.0201C17.9912 14.3337 17.7363 14.5887 17.4227 14.7484C17.0661 14.9301 16.5994 14.9301 15.666 14.9301H14.166M14.166 18.2634L14.166 3.26343M16.2493 3.26343L12.0827 3.26343M16.2493 18.2634L12.0827 18.2634" stroke="#7D8292" stroke-width="1.5" stroke-linecap="round" stroke-linejoin="round"/>
</svg>
