<svg width="11" height="13" viewBox="0 0 11 13" fill="none" xmlns="http://www.w3.org/2000/svg">
<path d="M1.1 1.85714L9.9 1.85714C10.1917 1.85714 10.4715 1.95497 10.6778 2.12912C10.8841 2.30326 11 2.53944 11 2.78571L11 10.2143C11 10.4606 10.8841 10.6967 10.6778 10.8709C10.4715 11.045 10.1917 11.1429 9.9 11.1429L1.1 11.1429C0.808262 11.1429 0.528472 11.045 0.322182 10.8709C0.115892 10.6967 -1.11003e-07 10.4606 -1.21767e-07 10.2143L-4.46481e-07 2.78572C-4.57245e-07 2.53944 0.115892 2.30326 0.322182 2.12912C0.528472 1.95498 0.808261 1.85714 1.1 1.85714ZM-5.47953e-07 0.464287C-5.42571e-07 0.587423 0.0579458 0.705516 0.161091 0.792587C0.264236 0.879657 0.40413 0.928573 0.55 0.928573L10.45 0.928572C10.5959 0.928572 10.7358 0.879657 10.8389 0.792586C10.9421 0.705516 11 0.587423 11 0.464286C11 0.34115 10.9421 0.223057 10.8389 0.135986C10.7358 0.048916 10.5959 7.28933e-07 10.45 7.35309e-07L0.55 1.16805e-06C0.40413 1.17443e-06 0.264236 0.0489165 0.161091 0.135987C0.0579458 0.223057 -5.53336e-07 0.341151 -5.47953e-07 0.464287ZM-2.02946e-08 12.5357C-1.49121e-08 12.6589 0.0579464 12.7769 0.161091 12.864C0.264236 12.9511 0.404131 13 0.55 13L10.45 13C10.5959 13 10.7358 12.9511 10.8389 12.864C10.9421 12.7769 11 12.6589 11 12.5357C11 12.4126 10.9421 12.2945 10.8389 12.2074C10.7358 12.1203 10.5959 12.0714 10.45 12.0714L0.55 12.0714C0.404131 12.0714 0.264236 12.1203 0.161091 12.2074C0.0579463 12.2945 -2.5677e-08 12.4126 -2.02946e-08 12.5357Z" fill="white"/>
</svg>
