<svg width="12" height="12" viewBox="0 0 12 12" fill="none" xmlns="http://www.w3.org/2000/svg">
<path d="M0.5 7L11.5 7M3.8 10.5H8.2M3.14 9H8.86C9.78409 9 10.2461 9 10.5991 8.83651C10.9096 8.6927 11.162 8.46323 11.3202 8.18099C11.5 7.86012 11.5 7.44008 11.5 6.6V3.9C11.5 3.05992 11.5 2.63988 11.3202 2.31901C11.162 2.03677 10.9096 1.8073 10.5991 1.66349C10.2461 1.5 9.78409 1.5 8.86 1.5H3.14C2.21591 1.5 1.75387 1.5 1.40092 1.66349C1.09045 1.8073 0.83803 2.03677 0.679839 2.31901C0.5 2.63988 0.5 3.05992 0.5 3.9V6.6C0.5 7.44008 0.5 7.86012 0.679839 8.18099C0.83803 8.46323 1.09045 8.6927 1.40092 8.83651C1.75387 9 2.21591 9 3.14 9Z" stroke="#515676" stroke-linecap="round" stroke-linejoin="round"/>
</svg>
