<svg width="22" height="22" viewBox="0 0 22 22" fill="none" xmlns="http://www.w3.org/2000/svg">
<path d="M11 15V11M11 7H11.01M1 14.4773V7.52274C1 7.27815 1 7.15586 1.02763 7.04077C1.05213 6.93873 1.09253 6.84119 1.14736 6.75172C1.2092 6.6508 1.29568 6.56432 1.46863 6.39137L6.39137 1.46863C6.56432 1.29568 6.6508 1.2092 6.75172 1.14736C6.84119 1.09253 6.93873 1.05213 7.04077 1.02763C7.15586 1 7.27815 1 7.52274 1H14.4773C14.7218 1 14.8441 1 14.9592 1.02763C15.0613 1.05213 15.1588 1.09253 15.2483 1.14736C15.3492 1.2092 15.4357 1.29568 15.6086 1.46863L20.5314 6.39137C20.7043 6.56432 20.7908 6.6508 20.8526 6.75172C20.9075 6.84119 20.9479 6.93873 20.9724 7.04077C21 7.15586 21 7.27815 21 7.52274V14.4773C21 14.7218 21 14.8441 20.9724 14.9592C20.9479 15.0613 20.9075 15.1588 20.8526 15.2483C20.7908 15.3492 20.7043 15.4357 20.5314 15.6086L15.6086 20.5314C15.4357 20.7043 15.3492 20.7908 15.2483 20.8526C15.1588 20.9075 15.0613 20.9479 14.9592 20.9724C14.8441 21 14.7218 21 14.4773 21H7.52274C7.27815 21 7.15586 21 7.04077 20.9724C6.93873 20.9479 6.84119 20.9075 6.75172 20.8526C6.6508 20.7908 6.56432 20.7043 6.39137 20.5314L1.46863 15.6086C1.29568 15.4357 1.2092 15.3492 1.14736 15.2483C1.09253 15.1588 1.05213 15.0613 1.02763 14.9592C1 14.8441 1 14.7218 1 14.4773Z" stroke="#B99518" stroke-width="2" stroke-linecap="round" stroke-linejoin="round"/>
</svg>
