<svg width="12" height="12" viewBox="0 0 12 12" fill="none" xmlns="http://www.w3.org/2000/svg">
<g clip-path="url(#clip0_878_25582)">
<path d="M8.82885 6.12872L8.82885 6.12347M11.1431 8.64485L11.1431 3.61259C11.1431 3.02543 11.1431 2.73186 11.031 2.5076C10.9324 2.31033 10.7751 2.14995 10.5815 2.04943C10.3615 1.93517 10.0735 1.93517 9.49742 1.93517L2.50314 1.93517C1.92708 1.93517 1.63905 1.93517 1.41903 2.04943C1.22549 2.14995 1.06814 2.31033 0.969529 2.5076C0.857422 2.73186 0.857422 3.02544 0.857422 3.61259L0.857422 8.64485C0.857422 9.232 0.857422 9.52557 0.969529 9.74984C1.06814 9.9471 1.22549 10.1075 1.41903 10.208C1.63906 10.3223 1.92708 10.3223 2.50314 10.3223L9.49742 10.3223C10.0735 10.3223 10.3615 10.3223 10.5815 10.208C10.7751 10.1075 10.9324 9.9471 11.031 9.74984C11.1431 9.52557 11.1431 9.232 11.1431 8.64485ZM8.82885 5.86662C8.97087 5.86662 9.08599 5.98396 9.08599 6.12872C9.08599 6.27347 8.97087 6.39081 8.82885 6.39081C8.68683 6.39081 8.57171 6.27347 8.57171 6.12872C8.57171 5.98396 8.68683 5.86662 8.82885 5.86662Z" stroke="#515676" stroke-linecap="round" stroke-linejoin="round"/>
</g>
<defs>
<clipPath id="clip0_878_25582">
<rect width="11.7419" height="12" fill="white" transform="translate(0 12) rotate(-90)"/>
</clipPath>
</defs>
</svg>
