<svg width="12" height="12" viewBox="0 0 12 12" fill="none" xmlns="http://www.w3.org/2000/svg">
<g clip-path="url(#clip0_878_25584)">
<path d="M0.857422 4.69175L1.57742 4.69175C1.86545 4.69175 2.00946 4.69175 2.11947 4.74398C2.21624 4.78993 2.29492 4.86325 2.34422 4.95343C2.40028 5.05595 2.40028 5.19016 2.40028 5.45857L2.40028 6.8005C2.40028 7.06892 2.40028 7.20312 2.34423 7.30564C2.29492 7.39582 2.21624 7.46914 2.11947 7.51509C2.00946 7.56732 1.86545 7.56732 1.57742 7.56732L0.857422 7.56732M11.1431 7.95073L11.1431 4.30834C11.1431 3.77151 11.1431 3.5031 11.031 3.29806C10.9324 3.1177 10.7751 2.97107 10.5815 2.87917C10.3615 2.7747 10.0735 2.7747 9.49742 2.7747L2.50314 2.7747C1.92708 2.7747 1.63905 2.7747 1.41903 2.87917C1.22549 2.97107 1.06814 3.1177 0.969529 3.29806C0.857422 3.5031 0.857422 3.77151 0.857422 4.30834L0.857422 7.95073C0.857422 8.48756 0.857422 8.75597 0.969529 8.96101C1.06814 9.14137 1.22549 9.288 1.41903 9.3799C1.63906 9.48437 1.92708 9.48437 2.50314 9.48437L9.49742 9.48437C10.0735 9.48437 10.3615 9.48437 10.5815 9.3799C10.7751 9.288 10.9324 9.14137 11.031 8.96101C11.1431 8.75597 11.1431 8.48756 11.1431 7.95073Z" stroke="#515676" stroke-linecap="round" stroke-linejoin="round"/>
</g>
<defs>
<clipPath id="clip0_878_25584">
<rect width="11.7419" height="12" fill="white" transform="translate(0 12) rotate(-90)"/>
</clipPath>
</defs>
</svg>
