<svg width="20" height="20" viewBox="0 0 20 20" fill="none" xmlns="http://www.w3.org/2000/svg">
<path d="M1.66602 10H18.3327M1.66602 10C1.66602 14.6024 5.39698 18.3334 9.99935 18.3334M1.66602 10C1.66602 5.39765 5.39698 1.66669 9.99935 1.66669M18.3327 10C18.3327 14.6024 14.6017 18.3334 9.99935 18.3334M18.3327 10C18.3327 5.39765 14.6017 1.66669 9.99935 1.66669M9.99935 1.66669C12.0837 3.94865 13.2683 6.91005 13.3327 10C13.2683 13.09 12.0837 16.0514 9.99935 18.3334M9.99935 1.66669C7.91495 3.94865 6.73039 6.91005 6.66602 10C6.73039 13.09 7.91495 16.0514 9.99935 18.3334" stroke="#515676" stroke-width="1.2" stroke-linecap="round" stroke-linejoin="round"/>
</svg>
