<svg width="20" height="20" viewBox="0 0 20 20" fill="none" xmlns="http://www.w3.org/2000/svg">
<path d="M4.99935 4.99996L8.74935 8.74996M4.99935 4.99996H2.49935L1.66602 2.49996L2.49935 1.66663L4.99935 2.49996V4.99996ZM16.0485 2.28414L13.8588 4.47382C13.5288 4.80383 13.3638 4.96884 13.302 5.15911C13.2476 5.32648 13.2476 5.50677 13.302 5.67414C13.3638 5.86441 13.5288 6.02942 13.8588 6.35943L14.0565 6.55715C14.3866 6.88716 14.5516 7.05217 14.7418 7.11399C14.9092 7.16838 15.0895 7.16838 15.2569 7.11399C15.4471 7.05217 15.6121 6.88716 15.9422 6.55715L17.9904 4.50889C18.211 5.0457 18.3327 5.63362 18.3327 6.24996C18.3327 8.78126 16.2807 10.8333 13.7493 10.8333C13.4442 10.8333 13.146 10.8035 12.8575 10.7466C12.4524 10.6667 12.2498 10.6267 12.127 10.639C11.9965 10.652 11.9321 10.6715 11.8164 10.7334C11.7076 10.7917 11.5985 10.9008 11.3802 11.1191L5.41602 17.0833C4.72566 17.7736 3.60637 17.7736 2.91602 17.0833C2.22566 16.3929 2.22566 15.2736 2.91602 14.5833L8.88021 8.6191C9.09849 8.40081 9.20764 8.29167 9.26586 8.18287C9.32777 8.06719 9.34734 8.00285 9.36035 7.8723C9.37258 7.7495 9.33263 7.54694 9.25274 7.14183C9.19584 6.85334 9.16602 6.55513 9.16602 6.24996C9.16602 3.71865 11.218 1.66663 13.7493 1.66663C14.5873 1.66663 15.3727 1.89148 16.0485 2.28414ZM9.99939 12.4999L14.5827 17.0832C15.273 17.7736 16.3923 17.7736 17.0827 17.0832C17.773 16.3928 17.773 15.2736 17.0827 14.5832L13.3121 10.8127C13.0452 10.7874 12.7849 10.7393 12.5333 10.6702C12.2091 10.5812 11.8535 10.6458 11.6157 10.8836L9.99939 12.4999Z" stroke="#7D8292" stroke-width="1.2" stroke-linecap="round" stroke-linejoin="round"/>
</svg>
