<svg width="20" height="20" viewBox="0 0 20 20" fill="none" xmlns="http://www.w3.org/2000/svg">
<path d="M10.0047 3.44147C12.1434 3.44147 12.3967 3.45085 13.2378 3.48837C14.0195 3.52277 14.4417 3.65409 14.7231 3.76353C15.0952 3.90737 15.3641 4.08247 15.6424 4.36076C15.9238 4.64217 16.0958 4.90795 16.2396 5.28005C16.349 5.56146 16.4804 5.98671 16.5148 6.76529C16.5523 7.60954 16.5617 7.86281 16.5617 9.99844C16.5617 12.1372 16.5523 12.3905 16.5148 13.2316C16.4804 14.0133 16.349 14.4354 16.2396 14.7168C16.0958 15.0889 15.9207 15.3578 15.6424 15.6361C15.361 15.9175 15.0952 16.0895 14.7231 16.2333C14.4417 16.3428 14.0164 16.4741 13.2378 16.5085C12.3936 16.546 12.1403 16.5554 10.0047 16.5554C7.86594 16.5554 7.61266 16.546 6.77155 16.5085C5.98984 16.4741 5.56772 16.3428 5.2863 16.2333C4.91421 16.0895 4.6453 15.9144 4.36701 15.6361C4.0856 15.3547 3.91362 15.0889 3.76979 14.7168C3.66035 14.4354 3.52902 14.0102 3.49463 13.2316C3.4571 12.3873 3.44772 12.1341 3.44772 9.99844C3.44772 7.85968 3.4571 7.60641 3.49463 6.76529C3.52902 5.98358 3.66035 5.56146 3.76979 5.28005C3.91362 4.90795 4.08872 4.63905 4.36701 4.36076C4.64843 4.07934 4.91421 3.90737 5.2863 3.76353C5.56772 3.65409 5.99296 3.52277 6.77155 3.48837C7.61266 3.45085 7.86594 3.44147 10.0047 3.44147ZM10.0047 2C7.83154 2 7.55951 2.00938 6.70588 2.0469C5.85538 2.08442 5.27067 2.22201 4.76412 2.419C4.23568 2.62537 3.78855 2.8974 3.34454 3.34454C2.8974 3.78855 2.62537 4.23569 2.419 4.76099C2.22201 5.27067 2.08442 5.85226 2.0469 6.70276C2.00938 7.55951 2 7.83154 2 10.0047C2 12.1778 2.00938 12.4499 2.0469 13.3035C2.08442 14.154 2.22201 14.7387 2.419 15.2453C2.62537 15.7737 2.8974 16.2208 3.34454 16.6648C3.78855 17.1089 4.23568 17.384 4.76099 17.5873C5.27067 17.7842 5.85226 17.9218 6.70275 17.9594C7.55638 17.9969 7.82841 18.0063 10.0016 18.0063C12.1747 18.0063 12.4467 17.9969 13.3004 17.9594C14.1509 17.9218 14.7356 17.7842 15.2421 17.5873C15.7674 17.384 16.2146 17.1089 16.6586 16.6648C17.1026 16.2208 17.3778 15.7737 17.581 15.2484C17.778 14.7387 17.9156 14.1571 17.9531 13.3066C17.9906 12.453 18 12.181 18 10.0078C18 7.83467 17.9906 7.56263 17.9531 6.70901C17.9156 5.85851 17.778 5.27379 17.581 4.76725C17.384 4.23568 17.112 3.78855 16.6648 3.34454C16.2208 2.90053 15.7737 2.62537 15.2484 2.42212C14.7387 2.22513 14.1571 2.08755 13.3066 2.05003C12.4499 2.00938 12.1778 2 10.0047 2Z" fill="#7D8292"/>
<path d="M6.14258 10.0047C6.14258 7.87272 7.87235 6.14294 10.0044 6.14294C12.1364 6.14294 13.8661 7.87272 13.8661 10.0047C13.8661 12.1367 12.1364 13.8665 10.0044 13.8665C7.87235 13.8665 6.14258 12.1367 6.14258 10.0047ZM7.08717 10.0047C7.08717 11.6155 8.39355 12.9219 10.0044 12.9219C11.6152 12.9219 12.9215 11.6155 12.9215 10.0047C12.9215 8.39392 11.6152 7.08754 10.0044 7.08754C8.39355 7.08754 7.08717 8.39392 7.08717 10.0047Z" fill="#7D8292" stroke="#7D8292" stroke-width="0.5"/>
<path d="M15.2382 5.73032C15.2382 6.26189 14.8067 6.69026 14.2783 6.69026C13.7467 6.69026 13.3184 6.25876 13.3184 5.73032C13.3184 5.19876 13.7499 4.77039 14.2783 4.77039C14.8067 4.77039 15.2382 5.20189 15.2382 5.73032Z" fill="#7D8292"/>
</svg>
