<svg width="12" height="13" viewBox="0 0 12 13" fill="none" xmlns="http://www.w3.org/2000/svg">
<g clip-path="url(#clip0_830_7209)">
<path d="M7.56607 1.35715V2.07715C7.56607 2.36517 7.56607 2.50919 7.51383 2.6192C7.46788 2.71597 7.39456 2.79464 7.30438 2.84395C7.20186 2.9 7.06766 2.9 6.79924 2.9H5.45731C5.1889 2.9 5.05469 2.9 4.95217 2.84395C4.86199 2.79464 4.78867 2.71597 4.74273 2.6192C4.69049 2.50919 4.69049 2.36517 4.69049 2.07715V1.35715M4.30708 11.6429H7.94948C8.4863 11.6429 8.75471 11.6429 8.95975 11.5308C9.14011 11.4321 9.28675 11.2748 9.37864 11.0813C9.48312 10.8612 9.48312 10.5732 9.48312 9.99715V3.00286C9.48312 2.42681 9.48312 2.13878 9.37864 1.91876C9.28675 1.72522 9.14011 1.56787 8.95975 1.46925C8.75471 1.35715 8.4863 1.35715 7.94948 1.35715H4.30708C3.77025 1.35715 3.50184 1.35715 3.2968 1.46925C3.11644 1.56787 2.96981 1.72522 2.87791 1.91876C2.77344 2.13878 2.77344 2.42681 2.77344 3.00286V9.99715C2.77344 10.5732 2.77344 10.8612 2.87791 11.0813C2.96981 11.2748 3.11644 11.4321 3.2968 11.5308C3.50184 11.6429 3.77025 11.6429 4.30708 11.6429Z" stroke="#515676" stroke-linecap="round" stroke-linejoin="round"/>
</g>
<defs>
<clipPath id="clip0_830_7209">
<rect width="11.7419" height="12" fill="white" transform="translate(0.257812 0.5)"/>
</clipPath>
</defs>
</svg>
