<svg width="22" height="22" viewBox="0 0 22 22" fill="none" xmlns="http://www.w3.org/2000/svg">
<path d="M2.74958 11.9166H18.3329M10.9996 3.20831L9.62458 1.83331M10.5413 2.74998L18.6708 10.8796C19.0338 11.2426 19.2154 11.4241 19.2834 11.6334C19.3432 11.8175 19.3432 12.0158 19.2834 12.1999C19.2154 12.4092 19.0338 12.5907 18.6708 12.9537L13.6525 17.972C12.5635 19.0611 12.019 19.6056 11.391 19.8096C10.8387 19.9891 10.2438 19.9891 9.69145 19.8096C9.06355 19.6056 8.51903 19.0611 7.42998 17.972L4.48585 15.0279C3.39681 13.9389 2.85228 13.3943 2.64827 12.7664C2.46881 12.2141 2.46881 11.6192 2.64827 11.0668C2.85228 10.4389 3.39681 9.89442 4.48585 8.80538L10.5413 2.74998Z" stroke="#7D8292" stroke-width="1.5" stroke-linecap="round" stroke-linejoin="round"/>
</svg>
