<svg width="12" height="13" viewBox="0 0 12 13" fill="none" xmlns="http://www.w3.org/2000/svg">
<g clip-path="url(#clip0_830_7205)">
<path d="M3.85725 11.6429H7.88305M5.87015 9.54763V11.6429M3.25338 9.54763H8.48692C9.33242 9.54763 9.75517 9.54763 10.0781 9.37635C10.3622 9.22569 10.5931 8.9853 10.7379 8.68961C10.9024 8.35347 10.9024 7.91342 10.9024 7.03334V4.72858C10.9024 3.8485 10.9024 3.40846 10.7379 3.07231C10.5931 2.77663 10.3622 2.53623 10.0781 2.38557C9.75517 2.21429 9.33242 2.21429 8.48692 2.21429H3.25338C2.40788 2.21429 1.98513 2.21429 1.66219 2.38557C1.37812 2.53623 1.14717 2.77663 1.00244 3.07231C0.837891 3.40846 0.837891 3.8485 0.837891 4.72858V7.03334C0.837891 7.91342 0.837891 8.35347 1.00244 8.68961C1.14717 8.9853 1.37812 9.22569 1.66219 9.37635C1.98513 9.54763 2.40788 9.54763 3.25338 9.54763Z" stroke="#515676" stroke-linecap="round" stroke-linejoin="round"/>
</g>
<defs>
<clipPath id="clip0_830_7205">
<rect width="11.7419" height="12" fill="white" transform="translate(0 0.5)"/>
</clipPath>
</defs>
</svg>
