<svg width="20" height="21" viewBox="0 0 20 21" fill="none" xmlns="http://www.w3.org/2000/svg">
<path d="M4.999 16.8425L12.3899 9.45164C12.7199 9.12163 12.8849 8.95662 13.0752 8.89479C13.2425 8.84041 13.4228 8.84041 13.5902 8.89479C13.7805 8.95662 13.9455 9.12163 14.2755 9.45164L17.8371 13.0132M8.74935 7.25883C8.74935 8.1793 8.00316 8.9255 7.08268 8.9255C6.16221 8.9255 5.41602 8.1793 5.41602 7.25883C5.41602 6.33836 6.16221 5.59216 7.08268 5.59216C8.00316 5.59216 8.74935 6.33836 8.74935 7.25883ZM18.3327 10.1755C18.3327 14.7779 14.6017 18.5088 9.99935 18.5088C5.39698 18.5088 1.66602 14.7779 1.66602 10.1755C1.66602 5.57312 5.39698 1.84216 9.99935 1.84216C14.6017 1.84216 18.3327 5.57312 18.3327 10.1755Z" stroke="#7D8292" stroke-width="1.5" stroke-linecap="round" stroke-linejoin="round"/>
</svg>
