<svg width="20" height="21" viewBox="0 0 20 21" fill="none" xmlns="http://www.w3.org/2000/svg">
<path d="M14.5833 5.76786L5.41667 5.76786M6.5 2.8512H13.5C14.9001 2.8512 15.6002 2.8512 16.135 3.12368C16.6054 3.36336 16.9878 3.74581 17.2275 4.21622C17.5 4.751 17.5 5.45107 17.5 6.8512V13.8512C17.5 15.2513 17.5 15.9514 17.2275 16.4862C16.9878 16.9566 16.6054 17.339 16.135 17.5787C15.6002 17.8512 14.9001 17.8512 13.5 17.8512H6.5C5.09987 17.8512 4.3998 17.8512 3.86502 17.5787C3.39462 17.339 3.01217 16.9566 2.77248 16.4862C2.5 15.9514 2.5 15.2513 2.5 13.8512V6.8512C2.5 5.45106 2.5 4.751 2.77248 4.21622C3.01217 3.74581 3.39462 3.36336 3.86502 3.12368C4.3998 2.8512 5.09987 2.8512 6.5 2.8512Z" stroke="#7D8292" stroke-width="1.5" stroke-linecap="round" stroke-linejoin="round"/>
</svg>
