<svg width="20" height="21" viewBox="0 0 20 21" fill="none" xmlns="http://www.w3.org/2000/svg">
<path d="M17.5 8.50444V7.08777C17.5 5.68764 17.5 4.98757 17.2275 4.45279C16.9878 3.98239 16.6054 3.59994 16.135 3.36025C15.6002 3.08777 14.9001 3.08777 13.5 3.08777H6.5C5.09987 3.08777 4.3998 3.08777 3.86502 3.36025C3.39462 3.59994 3.01217 3.98239 2.77248 4.45279C2.5 4.98757 2.5 5.68764 2.5 7.08777V14.0878C2.5 15.4879 2.5 16.188 2.77248 16.7227C3.01217 17.1931 3.39462 17.5756 3.86502 17.8153C4.3998 18.0878 5.09987 18.0878 6.5 18.0878H7.91667M14.4885 15.3472L13.0733 17.9755C12.8419 18.4051 12.7263 18.6199 12.5853 18.676C12.4629 18.7247 12.3247 18.7126 12.2126 18.6434C12.0835 18.5638 12.0068 18.3322 11.8534 17.869L9.58366 11.0139C9.44936 10.6082 9.38221 10.4054 9.43049 10.2703C9.47251 10.1528 9.56503 10.0603 9.68257 10.0183C9.81764 9.96998 10.0205 10.0371 10.4261 10.1714L17.2812 12.4412C17.7444 12.5946 17.976 12.6712 18.0556 12.8004C18.1248 12.9125 18.1369 13.0507 18.0882 13.1731C18.0321 13.314 17.8173 13.4297 17.3877 13.661L14.7594 15.0763C14.694 15.1115 14.6612 15.1292 14.6326 15.1518C14.6071 15.1719 14.5841 15.1949 14.564 15.2203C14.5414 15.249 14.5238 15.2817 14.4885 15.3472Z" stroke="#7D8292" stroke-width="1.5" stroke-linecap="round" stroke-linejoin="round"/>
</svg>
