<svg width="23" height="24" viewBox="0 0 23 24" fill="none" xmlns="http://www.w3.org/2000/svg">
<path d="M5.16476 6.83594L6.15142 5.84928C6.23912 5.76158 6.32488 5.75963 6.40868 5.84344L17.471 16.9057C17.5548 16.9895 17.5528 17.0753 17.4651 17.163L16.4785 18.1497C16.3908 18.2374 16.305 18.2393 16.2212 18.1555L5.15891 7.09321C5.07511 7.0094 5.07705 6.92365 5.16476 6.83594Z" fill="#7D8292"/>
<path d="M5.1921 16.9283L16.2427 5.87769C16.3304 5.78999 16.4162 5.78804 16.5 5.87184L17.4428 6.81465C17.5266 6.89846 17.5246 6.98421 17.4369 7.07192L6.38633 18.1225C6.29862 18.2102 6.21287 18.2122 6.12906 18.1284L5.18625 17.1856C5.10245 17.1017 5.1044 17.016 5.1921 16.9283Z" fill="#7D8292"/>
</svg>
