<svg width="20" height="20" viewBox="0 0 20 20" fill="none" xmlns="http://www.w3.org/2000/svg">
<g clip-path="url(#clip0_901_13290)">
<path d="M13.3331 9.16663L1.66641 9.16663M8.33308 3.33329L6.66641 1.66663M11.6664 18.3333L1.66641 18.3333M18.3331 13.3333C18.3331 14.2538 17.5869 15 16.6664 15C15.7459 15 14.9997 14.2538 14.9997 13.3333C14.9997 12.4128 16.6664 10.8333 16.6664 10.8333C16.6664 10.8333 18.3331 12.4128 18.3331 13.3333ZM7.49975 2.49996L13.2236 8.22382C13.5536 8.55383 13.7186 8.71884 13.7805 8.90911C13.8348 9.07648 13.8348 9.25677 13.7805 9.42414C13.7186 9.61441 13.5536 9.77942 13.2236 10.1094L9.38536 13.9477C8.72534 14.6077 8.39532 14.9377 8.01478 15.0614C7.68004 15.1701 7.31946 15.1701 6.98472 15.0614C6.60417 14.9377 6.27416 14.6077 5.61413 13.9477L2.7187 11.0522C2.05867 10.3922 1.72866 10.0622 1.60501 9.68165C1.49625 9.34692 1.49625 8.98634 1.60501 8.6516C1.72866 8.27105 2.05867 7.94104 2.7187 7.28101L7.49975 2.49996Z" stroke="#7D8292" stroke-width="1.5" stroke-linecap="round" stroke-linejoin="round"/>
</g>
<defs>
<clipPath id="clip0_901_13290">
<rect width="20" height="20" fill="white"/>
</clipPath>
</defs>
</svg>
