<svg width="17" height="17" viewBox="0 0 17 17" fill="none" xmlns="http://www.w3.org/2000/svg">
<path d="M7.43685 1.41864C6.95869 1.42512 6.67164 1.4528 6.43953 1.57106C6.17297 1.70688 5.95624 1.92361 5.82042 2.19017C5.70216 2.42228 5.67448 2.70933 5.668 3.18749M13.8118 1.41864C14.29 1.42512 14.5771 1.4528 14.8092 1.57106C15.0757 1.70688 15.2925 1.92361 15.4283 2.19017C15.5465 2.42228 15.5742 2.70933 15.5807 3.18748M15.5807 9.56248C15.5742 10.0406 15.5465 10.3277 15.4283 10.5598C15.2925 10.8264 15.0757 11.0431 14.8092 11.1789C14.5771 11.2972 14.29 11.3249 13.8118 11.3313M15.5827 5.66665V7.08332M9.91605 1.41666H11.3327M3.68268 15.5833H9.06602C9.85942 15.5833 10.2561 15.5833 10.5592 15.4289C10.8257 15.2931 11.0425 15.0764 11.1783 14.8098C11.3327 14.5068 11.3327 14.1101 11.3327 13.3167V7.93332C11.3327 7.13991 11.3327 6.74321 11.1783 6.44017C11.0425 6.17361 10.8257 5.95688 10.5592 5.82106C10.2561 5.66666 9.85942 5.66666 9.06602 5.66666H3.68268C2.88927 5.66666 2.49257 5.66666 2.18953 5.82106C1.92297 5.95688 1.70624 6.17361 1.57042 6.44017C1.41602 6.74321 1.41602 7.13992 1.41602 7.93332V13.3167C1.41602 14.1101 1.41602 14.5068 1.57042 14.8098C1.70624 15.0764 1.92297 15.2931 2.18953 15.4289C2.49257 15.5833 2.88927 15.5833 3.68268 15.5833Z" stroke="white" stroke-linecap="round" stroke-linejoin="round"/>
</svg>
