<svg width="20" height="20" viewBox="0 0 20 20" fill="none" xmlns="http://www.w3.org/2000/svg">
<g clip-path="url(#clip0_901_13303)">
<path d="M9.99935 1.66663C10.4924 1.66663 10.9755 1.70945 11.445 1.79157M9.99935 1.66663C5.39698 1.66663 1.66602 5.39759 1.66602 9.99996C1.66602 14.6023 5.39698 18.3333 9.99935 18.3333M9.99935 1.66663V18.3333M14.781 3.17413C15.5762 3.7322 16.2694 4.42571 16.8272 5.22113M18.2078 8.55465C18.2899 9.02408 18.3327 9.50702 18.3327 9.99996C18.3327 10.4929 18.2899 10.9758 18.2078 11.4453M16.8237 14.7838C16.2663 15.5774 15.574 16.2694 14.7801 16.8264M11.4434 18.2086C10.9743 18.2906 10.4918 18.3333 9.99935 18.3333" stroke="#7D8292" stroke-width="1.5" stroke-linecap="round" stroke-linejoin="round"/>
</g>
<defs>
<clipPath id="clip0_901_13303">
<rect width="20" height="20" fill="white"/>
</clipPath>
</defs>
</svg>
