<svg width="20" height="20" viewBox="0 0 20 20" fill="none" xmlns="http://www.w3.org/2000/svg">
<path d="M1.66602 9.99996C1.66602 14.6023 5.39698 18.3333 9.99935 18.3333C11.3801 18.3333 12.4993 17.214 12.4993 15.8333V15.4166C12.4993 15.0296 12.4993 14.8361 12.5207 14.6736C12.6684 13.5518 13.5512 12.669 14.673 12.5213C14.8355 12.5 15.029 12.5 15.416 12.5H15.8327C17.2134 12.5 18.3327 11.3807 18.3327 9.99996C18.3327 5.39759 14.6017 1.66663 9.99935 1.66663C5.39698 1.66663 1.66602 5.39759 1.66602 9.99996Z" stroke="#515676" stroke-width="1.5" stroke-linecap="round" stroke-linejoin="round"/>
<path d="M5.83268 10.8333C6.29292 10.8333 6.66601 10.4602 6.66601 9.99996C6.66601 9.53972 6.29292 9.16662 5.83268 9.16662C5.37244 9.16662 4.99935 9.53972 4.99935 9.99996C4.99935 10.4602 5.37244 10.8333 5.83268 10.8333Z" stroke="#515676" stroke-width="1.5" stroke-linecap="round" stroke-linejoin="round"/>
<path d="M13.3327 7.49996C13.7929 7.49996 14.166 7.12686 14.166 6.66663C14.166 6.20639 13.7929 5.83329 13.3327 5.83329C12.8724 5.83329 12.4993 6.20639 12.4993 6.66663C12.4993 7.12686 12.8724 7.49996 13.3327 7.49996Z" stroke="#515676" stroke-width="1.5" stroke-linecap="round" stroke-linejoin="round"/>
<path d="M8.33268 6.66663C8.79292 6.66663 9.16601 6.29353 9.16601 5.83329C9.16601 5.37305 8.79292 4.99996 8.33268 4.99996C7.87244 4.99996 7.49935 5.37305 7.49935 5.83329C7.49935 6.29353 7.87244 6.66663 8.33268 6.66663Z" stroke="#515676" stroke-width="1.5" stroke-linecap="round" stroke-linejoin="round"/>
</svg>
