<svg width="16" height="16" viewBox="0 0 16 16" fill="none" xmlns="http://www.w3.org/2000/svg">
<path d="M10.5 4.66667H5.16667C4.69996 4.66667 4.4666 4.66667 4.28834 4.57584C4.13154 4.49594 4.00406 4.36846 3.92416 4.21166C3.83333 4.0334 3.83333 3.80004 3.83333 3.33333V0.5M12.1667 15.5V10.1667C12.1667 9.69996 12.1667 9.4666 12.0758 9.28834C11.9959 9.13154 11.8685 9.00406 11.7117 8.92416C11.5334 8.83333 11.3 8.83333 10.8333 8.83333H5.16667C4.69996 8.83333 4.4666 8.83333 4.28834 8.92416C4.13154 9.00406 4.00406 9.13154 3.92416 9.28834C3.83333 9.4666 3.83333 9.69996 3.83333 10.1667V15.5M15.5 5.77124V11.5C15.5 12.9001 15.5 13.6002 15.2275 14.135C14.9878 14.6054 14.6054 14.9878 14.135 15.2275C13.6002 15.5 12.9001 15.5 11.5 15.5H4.5C3.09987 15.5 2.3998 15.5 1.86502 15.2275C1.39462 14.9878 1.01217 14.6054 0.772484 14.135C0.5 13.6002 0.5 12.9001 0.5 11.5V4.5C0.5 3.09987 0.5 2.3998 0.772484 1.86502C1.01217 1.39462 1.39462 1.01217 1.86502 0.772484C2.3998 0.5 3.09987 0.5 4.5 0.5H10.2288C10.6364 0.5 10.8402 0.5 11.0321 0.54605C11.2021 0.586878 11.3647 0.654219 11.5138 0.7456C11.682 0.848669 11.8261 0.992796 12.1144 1.28105L14.719 3.88562C15.0072 4.17387 15.1513 4.318 15.2544 4.48619C15.3458 4.63531 15.4131 4.79789 15.4539 4.96795C15.5 5.15976 15.5 5.36358 15.5 5.77124Z" stroke="white" stroke-linecap="round" stroke-linejoin="round"/>
</svg>
