<svg width="13" height="13" viewBox="0 0 13 13" fill="none" xmlns="http://www.w3.org/2000/svg">
<path d="M11.9289 12.1153H7.37606M1.40039 12.3999L4.55853 11.1852C4.76053 11.1075 4.86153 11.0687 4.95603 11.018C5.03996 10.9729 5.11998 10.9209 5.19524 10.8625C5.27997 10.7968 5.35649 10.7202 5.50952 10.5672L11.9289 4.14781C12.5576 3.51919 12.5576 2.49999 11.9289 1.87137C11.3003 1.24275 10.2811 1.24275 9.6525 1.87137L3.23308 8.29077C3.08005 8.44381 3.00353 8.52032 2.93778 8.60505C2.87938 8.68031 2.82738 8.76033 2.78232 8.84426C2.7316 8.93876 2.69275 9.03976 2.61506 9.24176L1.40039 12.3999ZM1.40039 12.3999L2.57169 9.35457C2.6555 9.13665 2.69741 9.02769 2.76929 8.97778C2.83211 8.93416 2.90984 8.91766 2.98496 8.93201C3.07092 8.94842 3.15347 9.03097 3.31857 9.19607L4.60424 10.4817C4.76933 10.6468 4.85188 10.7294 4.8683 10.8153C4.88264 10.8905 4.86615 10.9682 4.82253 11.031C4.77262 11.1029 4.66366 11.1448 4.44574 11.2286L1.40039 12.3999Z" stroke="#515676" stroke-linecap="round" stroke-linejoin="round"/>
</svg>
