<svg width="12" height="12" viewBox="0 0 12 12" fill="none" xmlns="http://www.w3.org/2000/svg">
<path d="M10.5 8V3.6C10.5 3.03995 10.5 2.75992 10.391 2.54601C10.2951 2.35785 10.1422 2.20487 9.95399 2.10899C9.74008 2 9.46005 2 8.9 2H3.1C2.53995 2 2.25992 2 2.04601 2.10899C1.85785 2.20487 1.70487 2.35785 1.60899 2.54601C1.5 2.75992 1.5 3.03995 1.5 3.6V8M2.33333 10H9.66667C9.97666 10 10.1317 10 10.2588 9.96593C10.6039 9.87346 10.8735 9.60391 10.9659 9.25882C11 9.13165 11 8.97666 11 8.66667C11 8.51167 11 8.43417 10.983 8.37059C10.9367 8.19804 10.802 8.06327 10.6294 8.01704C10.5658 8 10.4883 8 10.3333 8H1.66667C1.51167 8 1.43417 8 1.37059 8.01704C1.19804 8.06327 1.06327 8.19804 1.01704 8.37059C1 8.43417 1 8.51167 1 8.66667C1 8.97666 1 9.13165 1.03407 9.25882C1.12654 9.60391 1.39609 9.87346 1.74118 9.96593C1.86835 10 2.02334 10 2.33333 10Z" stroke="#515676" stroke-linecap="round" stroke-linejoin="round"/>
</svg>
