<svg width="20" height="21" viewBox="0 0 20 21" fill="none" xmlns="http://www.w3.org/2000/svg">
<path d="M17.5 7.57374L17.5 2.57374M17.5 2.57374H12.5M17.5 2.57374L10 10.0737M8.33333 2.57373H6.5C5.09987 2.57373 4.3998 2.57373 3.86502 2.84621C3.39462 3.0859 3.01217 3.46835 2.77248 3.93875C2.5 4.47353 2.5 5.1736 2.5 6.57373V13.5737C2.5 14.9739 2.5 15.6739 2.77248 16.2087C3.01217 16.6791 3.39462 17.0616 3.86502 17.3012C4.3998 17.5737 5.09987 17.5737 6.5 17.5737H13.5C14.9001 17.5737 15.6002 17.5737 16.135 17.3012C16.6054 17.0616 16.9878 16.6791 17.2275 16.2087C17.5 15.6739 17.5 14.9739 17.5 13.5737V11.7404" stroke="#7D8292" stroke-width="1.66667" stroke-linecap="round" stroke-linejoin="round"/>
</svg>
