<svg width="20" height="21" viewBox="0 0 20 21" fill="none" xmlns="http://www.w3.org/2000/svg">
<g clip-path="url(#clip0_936_7006)">
<path d="M11.6673 10.0645H6.66732M8.33398 13.3978H6.66732M13.334 6.73112H6.66732M16.6673 6.56445V15.2311C16.6673 16.6313 16.6673 17.3313 16.3948 17.8661C16.1552 18.3365 15.7727 18.719 15.3023 18.9586C14.7675 19.2311 14.0674 19.2311 12.6673 19.2311H7.33398C5.93385 19.2311 5.23379 19.2311 4.69901 18.9586C4.2286 18.719 3.84615 18.3365 3.60647 17.8661C3.33398 17.3313 3.33398 16.6313 3.33398 15.2311V6.56445C3.33398 5.16432 3.33398 4.46426 3.60647 3.92948C3.84615 3.45907 4.2286 3.07662 4.69901 2.83694C5.23379 2.56445 5.93385 2.56445 7.33398 2.56445H12.6673C14.0674 2.56445 14.7675 2.56445 15.3023 2.83694C15.7727 3.07662 16.1552 3.45907 16.3948 3.92948C16.6673 4.46426 16.6673 5.16432 16.6673 6.56445Z" stroke="#7D8292" stroke-width="1.66667" stroke-linecap="round" stroke-linejoin="round"/>
</g>
<defs>
<clipPath id="clip0_936_7006">
<rect width="20" height="20" fill="white" transform="translate(0 0.897949)"/>
</clipPath>
</defs>
</svg>
