<svg xmlns="http://www.w3.org/2000/svg" width="110" height="24" fill="none" viewBox="0 0 110 24"><g clip-path="url(#a)"><path fill="#e62a97" d="M84.565 6.182a.312.312 0 0 1 .442.285v2.238c0 .127-.077.24-.194.289l-2.326.957a.313.313 0 0 1-.431-.29V7.52c0-.123.072-.234.184-.285z"/><path fill="#0e0e0e" d="M105.062 22.418c-2.891 0-4.718-1.52-5.294-3.56a.296.296 0 0 1 .293-.37h2.167c.143 0 .266.098.315.233.366 1 1.345 1.428 2.519 1.428 1.081 0 1.667-.494 1.667-1.19 0-.472-.383-.876-1.172-1.078l-2.41-.562c-2.162-.516-3.266-1.64-3.266-3.414 0-2.223 1.847-3.66 4.347-3.66 2.812 0 4.577 1.566 5.045 3.618a.295.295 0 0 1-.295.357h-2.166a.34.34 0 0 1-.313-.23c-.386-1.046-1.389-1.477-2.293-1.477-.946 0-1.442.471-1.442 1.078 0 .606.473 1.01 1.397 1.235l2.23.54c2.139.516 3.198 1.639 3.198 3.369 0 2.088-1.712 3.683-4.527 3.683M87.357 17.925v-6.143c0-.126.077-.24.194-.289l2.325-.957a.312.312 0 0 1 .432.29v6.515c0 1.438.968 2.493 2.41 2.493 1.441 0 2.432-1.01 2.432-2.493v-5.559c0-.126.077-.24.194-.289l2.326-.957a.312.312 0 0 1 .43.29v11.01c0 .172-.139.312-.311.312h-2.326a.31.31 0 0 1-.313-.313v-.72c-.81.83-1.937 1.302-3.198 1.302-2.725 0-4.595-1.976-4.595-4.492M84.694 22.148c.173 0 .313-.14.313-.313v-11.01a.312.312 0 0 0-.432-.288l-2.326.956a.31.31 0 0 0-.193.29v10.052c0 .173.14.313.312.313zM64.263 22.148c.173 0 .313-.14.313-.313v-6.56c0-1.483.946-2.426 2.32-2.426s2.32.988 2.32 2.425v6.561c0 .173.14.313.312.313h2.303c.173 0 .313-.14.313-.313v-6.56c0-1.483.968-2.426 2.32-2.426 1.374 0 2.32.988 2.32 2.425v6.561c0 .173.14.313.312.313h2.303c.173 0 .313-.14.313-.313v-7.167c0-2.493-1.78-4.447-4.438-4.447-1.576 0-2.95.763-3.739 2.044-.743-1.236-2.117-2.044-3.829-2.044-1.216 0-2.342.471-3.13 1.258v-.631a.313.313 0 0 0-.313-.313H61.96a.31.31 0 0 0-.312.313v10.987c0 .173.14.313.312.313z"/><path fill="#0e0e0e" fill-rule="evenodd" d="M47.985 17.869c-.84-3.125.928-6.527 4.256-7.416 3.373-.901 6.436.954 7.375 4.447l.14.522a.313.313 0 0 1-.221.383l-8.378 2.24c.76 1.354 2.264 2.091 3.83 1.673.806-.215 1.442-.585 1.938-1.195a.33.33 0 0 1 .253-.125h2.291c.22 0 .37.221.277.42-.767 1.627-2.157 2.81-4.084 3.324-3.437.919-6.756-.846-7.677-4.273m4.844-4.969c-1.327.355-2.188 1.491-2.212 2.963l5.766-1.54c-.787-1.279-2.183-1.79-3.554-1.423M39.092 10.453c-3.328.889-5.096 4.291-4.256 7.416.92 3.427 4.24 5.192 7.677 4.273 1.926-.515 3.317-1.697 4.084-3.324.093-.199-.057-.42-.277-.42h-2.291a.33.33 0 0 0-.254.125c-.495.61-1.132.98-1.937 1.195-1.566.418-3.07-.32-3.83-1.674l8.378-2.239a.313.313 0 0 0 .221-.383l-.14-.522c-.939-3.493-4.003-5.348-7.375-4.447m-1.624 5.41c.024-1.472.885-2.608 2.212-2.963 1.37-.366 2.767.144 3.553 1.422z" clip-rule="evenodd"/><path fill="#0e0e0e" d="M34.233 12.807c0 .172-.14.312-.312.312h-.746c-1.397 0-2.478 1.01-2.478 2.785v5.932c0 .173-.14.313-.312.313h-2.326a.313.313 0 0 1-.313-.313V10.85c0-.173.14-.313.313-.313h2.303c.173 0 .312.14.312.313v.945c.586-.854 1.51-1.37 2.771-1.37h.476c.172 0 .312.14.312.312zM16.224 21.835c0 .173.14.313.313.313h2.416c.172 0 .312-.14.312-.313v-6.269h6.355c.172 0 .312-.14.312-.312v-1.958a.31.31 0 0 0-.312-.312h-6.355V9.075h6.58c.173 0 .312-.14.312-.312V6.737a.31.31 0 0 0-.312-.312h-9.308a.313.313 0 0 0-.313.312v15.098"/><path fill="#6753ff" d="M0 7.857c0-.198.107-.38.278-.48L12.665.268c.209-.12.468.031.468.272v4.71c0 .197-.105.38-.277.479L.469 12.838A.313.313 0 0 1 0 12.567z"/><path fill="#902af5" d="M0 14.795c0-.197.105-.38.275-.478l8.121-4.71c.208-.122.47.029.47.27v4.708c0 .197-.105.38-.276.478L.47 19.774a.312.312 0 0 1-.47-.27z"/><path fill="#e62a97" d="M.536 21.668a.312.312 0 0 1-.024-.552l4.284-2.504a.312.312 0 0 1 .47.27v4.53c0 .23-.238.381-.446.283z"/></g><defs><clipPath id="a"><path fill="#fff" d="M0 0h109.589v24H0z"/></clipPath></defs></svg>