<svg xmlns="http://www.w3.org/2000/svg" width="33" height="28" fill="none" viewBox="0 0 33 28"><path fill="#000" fill-rule="evenodd" d="M16.622 0c11.295 0 15.636 6.173 15.636 13.976C32.258 23.309 26.19 28 16.622 28H0V0zM1.578 26.42h15.044c9.076 0 14.008-4.247 14.008-12.396 0-8.394-5.327-12.345-14.008-12.345H1.578zm6.857-2.073H3.6v-8.593h4.834zM6.018 8.442a3.01 3.01 0 0 1 3.008 3.013 3.01 3.01 0 0 1-3.008 3.013 3.01 3.01 0 0 1-3.01-3.013 3.01 3.01 0 0 1 3.01-3.013" clip-rule="evenodd"/><path fill="#d50072" fill-rule="evenodd" d="M25.156 8.692h1.38v4.148h2.023c-.543-7.556-6.51-9.235-11.937-9.235h-5.77v5.087h.838c1.579 0 2.516 1.037 2.516 2.765s-.937 2.766-2.467 2.766h-.887v10.123h5.77c8.83 0 11.838-4.098 11.986-10.123h-3.452zm-6.66 4.148v1.383h-3.452V8.692h3.354v1.383h-1.973v.642H18.3v1.382h-1.825v.741zm.592 1.383 1.677-5.531h1.973l1.677 5.53h-1.43l-.296-1.036h-1.825l-.296 1.037zm2.186-2.47h-.015v.05zm0 0h.972l-.444-1.53h-.05zM10.853 12.84v-2.765h.838c.543 0 1.135.148 1.135 1.382 0 1.235-.543 1.383-1.135 1.383z" clip-rule="evenodd"/></svg>