<svg xmlns="http://www.w3.org/2000/svg" width="38" height="28" fill="none" viewBox="0 0 38 28"><path fill="url(#a)" d="M28.155 14.566c1.012.022 2.031-.045 3.04.035 1.022.19 1.268 1.737.36 2.243-.62.334-1.355.125-2.026.184h-1.374zm3.626-2.786c.225.794-.541 1.507-1.306 1.398h-2.32c.016-.75-.032-1.562.023-2.272.93.026 1.868-.053 2.792.042.397.1.73.426.81.832M37.365 0c.043 1.517.006 3.114.018 4.662-.002 6.292.007 12.585-.004 18.878-.041 2.358-2.131 4.407-4.473 4.454-2.344.01-4.689.002-7.033.004v-9.513c2.554-.013 5.11.027 7.663-.02 1.185-.074 2.482-.856 2.538-2.16.139-1.309-1.095-2.214-2.267-2.357-.45-.012-.437-.131 0-.184 1.117-.241 1.995-1.398 1.666-2.556-.28-1.219-1.627-1.69-2.747-1.688-2.284-.016-4.569-.002-6.853-.007.015-1.776-.03-3.554.025-5.328C26.078 1.869 28.22-.041 30.53 0z"/><path fill="url(#b)" d="M.06 4.425C.12 2.07 2.219.038 4.558.004 6.892-.004 9.228.003 11.564 0c-.007 7.878.013 15.757-.01 23.634-.09 2.326-2.166 4.32-4.48 4.36-2.34.01-4.68.002-7.02.005v-9.834c2.274.537 4.657.765 6.976.41 1.386-.224 2.903-.904 3.372-2.342.345-1.23.15-2.525.202-3.788V9.514H6.591c-.018 1.939.037 3.881-.029 5.818-.108 1.19-1.287 1.947-2.41 1.906C2.76 17.253.001 16.23.001 16.23c-.007-3.633.04-8.183.06-11.804"/><path fill="url(#c)" d="M13.062 10.697c-.211.044-.043-.72-.097-1.01.015-1.833-.03-3.668.025-5.5.18-2.326 2.34-4.24 4.658-4.186h6.827c-.006 7.878.013 15.756-.01 23.634-.09 2.326-2.166 4.32-4.48 4.36-2.34.01-4.68.002-7.02.004V17.225c1.599 1.311 3.77 1.516 5.762 1.52 1.501-.001 2.993-.233 4.451-.579v-1.974c-1.643.819-3.574 1.339-5.395.869-1.27-.317-2.193-1.544-2.172-2.855-.147-1.364.652-2.803 1.992-3.208 1.663-.521 3.476-.123 5.035.554.334.175.674.392.54-.166V9.834c-2.608-.62-5.383-.849-8.003-.174-.758.214-1.497.539-2.113 1.037"/><defs><linearGradient id="a" x1="25.794" x2="37.311" y1="13.4" y2="13.4" gradientUnits="userSpaceOnUse"><stop stop-color="#58b03a"/><stop offset="1" stop-color="#55b330"/></linearGradient><linearGradient id="b" x1="-.19" x2="11.375" y1="14.268" y2="14.268" gradientUnits="userSpaceOnUse"><stop stop-color="#0f6eb6"/><stop offset="1" stop-color="#006dba"/></linearGradient><linearGradient id="c" x1="12.948" x2="24.473" y1="13.673" y2="13.673" gradientUnits="userSpaceOnUse"><stop stop-color="#de0d3d"/><stop offset="1" stop-color="#e30138"/></linearGradient></defs></svg>