<svg xmlns="http://www.w3.org/2000/svg" width="46" height="28" fill="none" viewBox="0 0 46 28"><path fill="#ed0006" fill-rule="evenodd" d="M31.792 0c7.643 0 13.84 6.269 13.84 14.001s-6.197 14-13.84 14c-3.426 0-6.56-1.26-8.977-3.346a13.7 13.7 0 0 1-8.975 3.346c-7.643 0-13.84-6.268-13.84-14s6.197-14 13.84-14a13.7 13.7 0 0 1 8.975 3.344A13.7 13.7 0 0 1 31.792 0" clip-rule="evenodd"/><path fill="#f9a000" fill-rule="evenodd" d="M31.792 0c7.643 0 13.84 6.269 13.84 14.001s-6.197 14-13.84 14c-3.426 0-6.56-1.26-8.977-3.346a14.03 14.03 0 0 0 4.863-10.654c0-4.267-1.887-8.088-4.863-10.656A13.7 13.7 0 0 1 31.79 0" clip-rule="evenodd"/><path fill="#ff5e00" d="M22.817 3.345a14.04 14.04 0 0 1 4.863 10.654c0 4.267-1.887 8.087-4.863 10.655A14.04 14.04 0 0 1 17.954 14c0-4.267 1.887-8.087 4.863-10.654"/></svg>