<svg xmlns="http://www.w3.org/2000/svg" width="192" height="159" fill="none" viewBox="0 0 192 159"><g clip-path="url(#a)"><path fill="url(#b)" d="m38.704 53.576 1.428-2.54 8.26 2.7-6.582-5.693 1.379-2.457 11.93 6.372-.981 1.743-8.121-4.283 7.167 5.983-.83 1.48-8.935-2.944 7.96 4.672-.988 1.756-11.694-6.79z"/><path fill="url(#c)" d="M56.06 49.32q-1.45-.05-3.1-1.485l-3.795-3.311c-1.1-.958-1.72-1.91-1.874-2.846-.153-.944.251-1.95 1.191-3.027.94-1.069 1.888-1.59 2.856-1.569.961.021 1.992.507 3.078 1.458l3.81 3.318q1.632 1.425 1.874 2.86.24 1.438-1.17 3.04c-.948 1.077-1.902 1.597-2.87 1.57zm1.65-3.88q-.2-.489-.828-1.041l-4.813-4.2q-.625-.552-1.135-.666c-.334-.077-.662.055-.968.41-.307.346-.397.687-.279 1.006q.188.481.815 1.034l4.813 4.2q.638.563 1.149.687.502.134.982-.41.461-.53.265-1.02"/><path fill="url(#d)" d="m54.416 32.806 1.512-1.18 6.7 3.672-4.332-5.518 1.804-1.41 8.344 10.614-1.463 1.139-6.979-4.026 4.61 5.872-1.852 1.444L54.416 32.8z"/><path fill="url(#e)" d="m63.735 26.087 5.182-2.805.913 1.666-2.772 1.5 1.713 3.144 2.145-1.159.92 1.68-2.146 1.16 2.027 3.713 2.8-1.52.891 1.638-5.21 2.825-6.463-11.85z"/><path fill="url(#f)" d="m76.606 28.905-5.23-6.782 2.438-.868 2.967 3.985-.342-4.915 2.375-.847.293 8.539 1.804 5.032-2.5.889z"/><path fill="url(#g)" d="m87.771 17.576 3.427-.27c1.31-.105 2.347.069 3.106.513.76.444 1.198 1.326 1.302 2.645q.095 1.195-.355 1.923c-.3.486-.766.812-1.386.972q1.193.072 1.853.853.658.781.773 2.229c.209 2.63-.996 4.054-3.615 4.262l-4.032.32-1.073-13.44zm4.43 11.239c.668-.056 1.121-.257 1.365-.611q.368-.53.285-1.61-.095-1.165-.557-1.632c-.313-.312-.8-.444-1.483-.389l-.732.056.342 4.248zm-.571-6.081c.668-.056 1.107-.236 1.33-.556q.334-.479.25-1.457-.07-.896-.57-1.25c-.335-.236-.822-.326-1.477-.277l-.516.041.286 3.554z"/><path fill="url(#h)" d="m101.756 17.27 3.037.32 1.163 13.682-2.528-.27-.181-3-2.124-.222-.829 2.895-2.577-.27zm1.407 9.025-.236-5.484-1.373 5.31z"/><path fill="url(#i)" d="M108.046 30.814c-.362-.91-.335-2.062.069-3.457l1.352-4.637q.624-2.143 1.803-2.985c.787-.562 1.874-.646 3.26-.243 1.323.382 2.173.979 2.535 1.784s.369 1.812.014 3.013l-.32 1.09-2.563-.743.348-1.201a7 7 0 0 0 .216-.944 1.08 1.08 0 0 0-.119-.666q-.167-.303-.647-.438-.721-.21-1.066.194-.345.405-.606 1.299l-1.72 5.88c-.174.61-.23 1.082-.153 1.43.069.346.327.582.766.707.445.132.78.063.996-.201s.411-.701.585-1.291l.369-1.264 2.563.743-.313 1.07c-.363 1.235-.913 2.11-1.658 2.63q-1.116.779-3.12.194-2.069-.602-2.612-1.964z"/><path fill="url(#j)" d="m121.961 22.248 2.445 1.229-2.563 5.088 4.757-3.992 2.389 1.194-5.001 4.276-.898 7.858-2.494-1.249.85-6.317-.731.451-2.382 4.727-2.445-1.228 6.073-12.051z"/><path fill="url(#k)" d="m72.49 121.369 2.626 1.284-2.257 8.372 5.342-6.866 2.536 1.236-5.726 12.217-1.796-.881 3.844-8.316-5.6 7.462-1.532-.75 2.459-9.052-4.242 8.177-1.818-.888 6.164-12.009z"/><path fill="url(#l)" d="M79.845 138.181c-.41-.874-.446-2.02-.09-3.429l1.218-4.88c.356-1.409.913-2.395 1.686-2.964q1.157-.845 3.245-.326 2.078.51 2.703 1.812c.418.867.46 1.999.104 3.394l-1.225 4.894c-.349 1.402-.913 2.388-1.7 2.971-.78.576-1.867.694-3.246.354q-2.091-.52-2.709-1.832zm4.214-.312q.354-.406.55-1.208l1.546-6.185q.2-.812.077-1.312c-.084-.333-.348-.555-.808-.673-.453-.111-.794-.042-1.024.215s-.41.653-.55 1.194l-1.546 6.185q-.209.822-.09 1.333.115.512.807.68.678.168 1.03-.236z"/><path fill="url(#m)" d="m90.947 127.852 1.915.104 2.633 7.157.376-6.997 2.285.118-.718 13.467-1.852-.097-2.605-7.608-.397 7.448-2.354-.125z"/><path fill="url(#n)" d="m99.688 128.102 5.857-.687.223 1.888-3.134.368.418 3.554 2.424-.285.223 1.903-2.424.284.494 4.2 3.169-.368.216 1.853-5.892.688-1.574-13.391z"/><path fill="url(#o)" d="m110.456 134.565-4.757-7.122 2.493-.701 2.688 4.172v-4.929l2.424-.68-.292 8.538 1.455 5.144-2.556.715-1.455-5.144z"/><path fill="url(#p)" d="m117.692 123.403 2.946-1.771c1.128-.673 2.131-.985 3.009-.923q1.326.096 2.347 1.784.617 1.029.543 1.881c-.055.57-.32 1.063-.808 1.486q1.1-.468 2.041-.063.942.405 1.686 1.653c1.365 2.263.926 4.067-1.324 5.421l-3.461 2.076-6.979-11.551zm5.767 2.894c.571-.34.884-.708.94-1.09.056-.381-.09-.853-.425-1.416-.313-.513-.668-.798-1.065-.867q-.604-.093-1.449.409l-.446.264 1.846 3.054.599-.361zm3.239 5.193c.571-.347.891-.729.947-1.153.062-.423-.098-.944-.467-1.562q-.606-.998-1.233-1.214-.629-.217-1.497.305l-.627.375 2.208 3.651.676-.402z"/><path fill="url(#q)" d="m126.746 117.349 2.278-2.034 10.969 8.31-1.887 1.687-2.361-1.875-1.595 1.423 1.602 2.555-1.929 1.721zm7.662 5.005-4.242-3.498 3.037 4.574z"/><path fill="url(#r)" d="M141.714 120.196q-1.473 0-3.197-1.333l-3.831-2.957q-1.767-1.365-2.124-2.77c-.237-.937.084-1.972.975-3.11.843-1.09 1.713-1.652 2.598-1.694s1.825.326 2.821 1.09l.898.694-1.637 2.103-.989-.763a8 8 0 0 0-.801-.549 1.04 1.04 0 0 0-.668-.131q-.335.04-.648.437-.46.594-.209 1.062.25.47.989 1.034l4.862 3.749q.752.584 1.274.666c.348.056.662-.09.94-.451.286-.368.349-.701.175-1q-.254-.447-.996-1.02l-1.045-.805 1.637-2.104.884.681q1.534 1.186 1.846 2.499.313 1.32-.961 2.964c-.878 1.131-1.811 1.701-2.793 1.701z"/><path fill="url(#s)" d="m136.546 106.201 1.254-2.43 5.084 2.604-3.963-4.776 1.219-2.368 4.248 5.019 7.878.965-1.275 2.472-6.331-.903.446.736 4.722 2.416-1.254 2.429-12.035-6.157z"/><path fill="url(#t)" d="M60.253 81.551 63.7 94.844l2.16-.7-5.057-12.773zm17.74-5.831-.328.104 1.65 5.067 1.505-.485c.801-.257.926-1.222.383-2.881-.362-1.104-.745-1.757-1.163-1.965q-.617-.31-2.062.16zm18.33-5.866 3.449 13.294 2.159-.701-5.057-12.773zm74.448-38.443-9.11 2.95C142.139 6.185 105.636-7.219 71.327 3.908c-34.309 11.12-55.914 43.365-55.064 77.601l-9.11 2.95L0 98.476l7.174 21.977 14.055 7.129 9.11-2.95c19.522 28.184 56.025 41.588 90.334 30.461 34.309-11.121 55.914-43.365 55.064-77.609l9.11-2.95L192 60.525l-7.174-21.978-14.055-7.13zM72.051 6.122C105.12-4.603 140.3 8.15 159.342 35.118l-3.364 1.09C137.632 10.995 104.375-.833 73.089 9.315c-31.286 10.142-51.191 39.2-51.143 70.355l-3.364 1.09C18.06 47.786 38.975 16.847 72.044 6.122zm83.62 50.543 1.665 5.102-5.683 1.84 2.019 6.192 6.318-2.048 1.734 5.303-12.439 4.034-8.867-27.17 12.05-3.909 1.72 5.27-5.92 1.922 1.734 5.304 5.683-1.84zm-34.552-9.15c-10.322-8.03-24.335-10.974-37.722-6.635-13.386 4.338-22.984 14.938-26.585 27.489L24.286 78.913C24.558 49.03 43.774 21.276 73.82 11.53c30.047-9.74 61.967 1.437 79.832 25.441l-32.526 10.545zm4.576 12.968-1.707-5.234 13.178-4.27 1.706 5.235-3.58 1.159 7.16 21.936-6.025 1.95-7.159-21.935-3.58 1.159zm-33.313-4.644-3.998-.736-2.793 2.936-.53-4.012-3.67-1.742 3.664-1.743.53-4.012 2.799 2.936 3.998-.736-1.937 3.562 1.937 3.56zm7.48 45.933 3.998.736 2.793-2.936.529 4.012 3.671 1.742-3.664 1.743-.529 4.012-2.8-2.936-3.998.736 1.936-3.562-1.936-3.561zm5.906-10.572-1.762-3.957-3.044.986.962 4.213-5.85 1.896-5.789-28.17 9.43-3.054 11.883 26.19-5.816 1.889zm-3.245-39.214-2.835-.52-1.985 2.082-.376-2.846-2.605-1.236 2.598-1.235.376-2.846 1.985 2.082 2.835-.52-1.372 2.526L102.523 52zm9.785 46.315 2.835.521 1.985-2.083.376 2.847 2.605 1.235-2.598 1.236-.376 2.846-1.985-2.083-2.835.521 1.372-2.527-1.379-2.526zm2.528-10.044-8.866-27.17 6.192-2.006 7.014 12.1-4.242-12.996 5.816-1.888 8.866 27.17-5.885 1.909-7.453-12.62 4.437 13.592-5.886 1.909zm-25.115 17.368 2.835.52 1.985-2.082.376 2.846 2.605 1.236-2.598 1.235-.376 2.846-1.985-2.082-2.835.521 1.372-2.527-1.379-2.527zM87.694 78.17c.056.528.035.993-.048 1.382q-.126.591-.564 1.256c-.293.444-.69.847-1.191 1.194q.885-.114 1.574.125c.452.16.828.417 1.12.778.293.354.523.7.697 1.027.168.326.328.708.467 1.138a607 607 0 0 1 3.273 10.253l-5.885 1.91-3.454-10.594q-.21-.632-.46-.965a.93.93 0 0 0-.655-.381 2.4 2.4 0 0 0-.738.02q-.334.075-1.003.285l4.04 12.363-6.095 1.979-8.866-27.17 9.242-3c.948-.304 1.797-.443 2.557-.402.759.035 1.4.202 1.922.493.522.292 1.01.743 1.456 1.36q.667.925 1.107 1.924.439.997.92 2.464c.166.514.292.93.382 1.263.091.326.16.757.216 1.291zm-7.758-18.86-2.835-.52-1.985 2.082-.376-2.846-2.605-1.236 2.598-1.236.376-2.846 1.985 2.083 2.835-.521-1.373 2.527 1.38 2.527zm-4.423 41.699-5.816 1.888-1.762-3.957-3.044.986.962 4.213-5.85 1.895-5.789-28.17 9.43-3.053 11.883 26.191zM33.348 84.633l5.85-1.895 6.387 19.562q.144.445.237.694c.062.167.167.396.313.673.146.278.3.486.453.625q.23.209.585.312c.237.07.494.056.78-.034a1.7 1.7 0 0 0 .585-.32.98.98 0 0 0 .3-.499c.048-.202.076-.382.09-.556a2.4 2.4 0 0 0-.07-.652l-.146-.604c-.042-.139-.097-.333-.18-.583l-6.388-19.562 5.85-1.895 6.52 19.971c.8 2.458.822 4.512.056 6.171-.767 1.659-2.396 2.881-4.904 3.686-2.542.833-4.61.813-6.205-.083q-2.392-1.332-3.594-5.019l-6.52-19.971zm37.533 26.858c10.322 8.031 24.335 10.974 37.722 6.636 13.386-4.339 22.984-14.939 26.585-27.49l32.526-10.544c-.272 29.884-19.488 57.637-49.527 67.383-30.047 9.74-61.967-1.436-79.832-25.441zm-50.168-1.673L16.87 98.051q-.627-1.924-.585-3.526c.028-1.069.209-1.937.536-2.617s.801-1.284 1.42-1.826c.62-.541 1.206-.95 1.77-1.221a14 14 0 0 1 1.867-.75c.842-.27 1.63-.465 2.354-.562q1.084-.157 1.95-.021a7.4 7.4 0 0 1 1.58.416c.482.188.913.48 1.31.854.397.382.745.77 1.045 1.173q.45.603.878 1.507.426.904.738 1.714.314.802.669 1.916l-5.754 1.867-.703-2.151c-.14-.43-.306-.778-.488-1.028q-.271-.385-.584-.479a1.6 1.6 0 0 0-.53-.09c-.153 0-.313.035-.48.09q-.514.165-.787.403a1.5 1.5 0 0 0-.383.5q-.116.26-.021.826c.062.374.139.728.23 1.048.09.32.25.826.473 1.506l3.427 10.503c.132.396.25.729.369.993.118.263.278.541.487.826.21.284.453.472.739.562q.428.135.982-.042.91-.293.975-1.096c.049-.535-.105-1.333-.453-2.388l-1.024-3.138-1.609.521-1.532-4.693 7.292-2.367 5.168 15.827-2.347.764-1.776-1.972c-.501 2.09-1.873 3.492-4.11 4.221q-6.516 2.115-9.262-6.296zm99.236 43.059c-33.07 10.725-68.249-2.027-87.29-28.995l3.363-1.09c18.353 25.219 51.603 37.041 82.889 26.899s51.192-39.207 51.143-70.354l3.364-1.09c.522 32.973-20.393 63.912-53.462 74.637zm57.926-85.064-12.439 4.034-8.866-27.17 12.049-3.909 1.72 5.27-5.92 1.922 1.734 5.304 5.684-1.84 1.664 5.102-5.683 1.84 2.02 6.192 6.317-2.048 1.734 5.303z"/></g><defs><linearGradient id="b" x1="173.425" x2="-141.617" y1="34.708" y2="203.221" gradientUnits="userSpaceOnUse"><stop stop-color="#ba70ff"/><stop offset="1" stop-color="#2f47ff"/></linearGradient><linearGradient id="c" x1="173.425" x2="-141.617" y1="34.708" y2="203.221" gradientUnits="userSpaceOnUse"><stop stop-color="#ba70ff"/><stop offset="1" stop-color="#2f47ff"/></linearGradient><linearGradient id="d" x1="173.425" x2="-141.617" y1="34.708" y2="203.221" gradientUnits="userSpaceOnUse"><stop stop-color="#ba70ff"/><stop offset="1" stop-color="#2f47ff"/></linearGradient><linearGradient id="e" x1="173.425" x2="-141.617" y1="34.708" y2="203.221" gradientUnits="userSpaceOnUse"><stop stop-color="#ba70ff"/><stop offset="1" stop-color="#2f47ff"/></linearGradient><linearGradient id="f" x1="173.425" x2="-141.617" y1="34.708" y2="203.221" gradientUnits="userSpaceOnUse"><stop stop-color="#ba70ff"/><stop offset="1" stop-color="#2f47ff"/></linearGradient><linearGradient id="g" x1="173.425" x2="-141.617" y1="34.708" y2="203.221" gradientUnits="userSpaceOnUse"><stop stop-color="#ba70ff"/><stop offset="1" stop-color="#2f47ff"/></linearGradient><linearGradient id="h" x1="173.425" x2="-141.617" y1="34.708" y2="203.221" gradientUnits="userSpaceOnUse"><stop stop-color="#ba70ff"/><stop offset="1" stop-color="#2f47ff"/></linearGradient><linearGradient id="i" x1="173.425" x2="-141.617" y1="34.708" y2="203.221" gradientUnits="userSpaceOnUse"><stop stop-color="#ba70ff"/><stop offset="1" stop-color="#2f47ff"/></linearGradient><linearGradient id="j" x1="173.425" x2="-141.617" y1="34.708" y2="203.221" gradientUnits="userSpaceOnUse"><stop stop-color="#ba70ff"/><stop offset="1" stop-color="#2f47ff"/></linearGradient><linearGradient id="k" x1="173.425" x2="-141.617" y1="34.708" y2="203.221" gradientUnits="userSpaceOnUse"><stop stop-color="#ba70ff"/><stop offset="1" stop-color="#2f47ff"/></linearGradient><linearGradient id="l" x1="173.425" x2="-141.617" y1="34.708" y2="203.221" gradientUnits="userSpaceOnUse"><stop stop-color="#ba70ff"/><stop offset="1" stop-color="#2f47ff"/></linearGradient><linearGradient id="m" x1="173.425" x2="-141.617" y1="34.708" y2="203.221" gradientUnits="userSpaceOnUse"><stop stop-color="#ba70ff"/><stop offset="1" stop-color="#2f47ff"/></linearGradient><linearGradient id="n" x1="173.425" x2="-141.617" y1="34.708" y2="203.221" gradientUnits="userSpaceOnUse"><stop stop-color="#ba70ff"/><stop offset="1" stop-color="#2f47ff"/></linearGradient><linearGradient id="o" x1="173.425" x2="-141.617" y1="34.708" y2="203.221" gradientUnits="userSpaceOnUse"><stop stop-color="#ba70ff"/><stop offset="1" stop-color="#2f47ff"/></linearGradient><linearGradient id="p" x1="173.425" x2="-141.617" y1="34.708" y2="203.221" gradientUnits="userSpaceOnUse"><stop stop-color="#ba70ff"/><stop offset="1" stop-color="#2f47ff"/></linearGradient><linearGradient id="q" x1="173.425" x2="-141.617" y1="34.708" y2="203.221" gradientUnits="userSpaceOnUse"><stop stop-color="#ba70ff"/><stop offset="1" stop-color="#2f47ff"/></linearGradient><linearGradient id="r" x1="173.425" x2="-141.617" y1="34.708" y2="203.221" gradientUnits="userSpaceOnUse"><stop stop-color="#ba70ff"/><stop offset="1" stop-color="#2f47ff"/></linearGradient><linearGradient id="s" x1="173.425" x2="-141.617" y1="34.708" y2="203.221" gradientUnits="userSpaceOnUse"><stop stop-color="#ba70ff"/><stop offset="1" stop-color="#2f47ff"/></linearGradient><linearGradient id="t" x1="173.425" x2="-141.617" y1="34.708" y2="203.221" gradientUnits="userSpaceOnUse"><stop stop-color="#ba70ff"/><stop offset="1" stop-color="#2f47ff"/></linearGradient><clipPath id="a"><path fill="#fff" d="M0 0h192v159H0z"/></clipPath></defs></svg>