<svg xmlns="http://www.w3.org/2000/svg" width="58" height="58" fill="none" viewBox="0 0 58 58"><g fill-rule="evenodd" clip-path="url(#a)" clip-rule="evenodd"><path fill="#eed85e" d="m34.417.509.868 2.853 1.891-2.173.383 2.9 2.322-1.93.29 2.946 2.274-1.79-.188 2.955 2.658-1.5-.29 2.946 2.565-1.258-.727 2.853 2.853-.962-.868 2.853 2.806-.774-1.313 2.658 3.048-.336-1.446 2.564 2.9-.196-1.79 2.369 3.049.242-1.884 2.275 2.853.336-2.228 1.986 2.947.82-2.321 1.892 2.759.867-2.564 1.501 2.712 1.353-2.61 1.352 2.509 1.454-2.806.97 2.376 1.883-2.806.82 2.173 1.892-2.947.43 1.978 2.322-2.947.242 1.79 2.275-2.955-.14 1.454 2.657-2.947-.336 1.305 2.61-2.853-.726.915 2.853-2.806-.868.773 2.751-2.657-1.258.336 3.002-2.61-1.4.195 2.9-2.322-1.79-.242 3.002-2.275-1.892-.39 2.853-1.931-2.173-.821 2.9-1.892-2.274-.915 2.712-1.5-2.517-1.353 2.712-1.36-2.665-1.399 2.517-1.016-2.76-1.837 2.377-.868-2.853-1.891 2.173-.383-2.9-2.322 1.978-.29-2.947-2.274 1.743.188-2.955-2.658 1.5.29-2.946-2.565 1.305.727-2.853-2.853.915.868-2.853-2.806.774 1.313-2.658-3.048.383 1.446-2.61-2.9.194 1.79-2.368-3.049-.242 1.884-2.275-2.853-.344 2.228-1.977-2.947-.821 2.321-1.845-2.759-.914 2.564-1.501-2.713-1.4 2.611-1.36L.125 26.39l2.806-.97-2.376-1.883 2.806-.82-2.173-1.892 2.947-.43-1.978-2.275 2.947-.29-1.79-2.274 2.955.14-1.454-2.61 2.947.29-1.305-2.564 2.853.726-.915-2.9 2.806.868-.774-2.76 2.658 1.26-.336-2.995 2.61 1.4-.195-2.853L17.486 5.3l.242-3.002 2.275 1.884.39-2.853 1.931 2.18.821-2.9 1.892 2.322.915-2.76 1.5 2.518L28.805.024l1.36 2.611L31.564.126l1.016 2.752z"/><path fill="#f0dd6a" d="M29 49.8c11.467 0 20.847-9.332 20.847-20.846 0-11.413-9.388-20.8-20.847-20.8-11.467 0-20.847 9.38-20.847 20.8C8.153 40.468 17.533 49.8 29 49.8"/><path fill="#f2e078" d="M29 47.48c10.209 0 18.526-8.317 18.526-18.526 0-10.161-8.317-18.478-18.526-18.478s-18.526 8.317-18.526 18.478c0 10.209 8.317 18.526 18.526 18.526"/><path fill="#f4e188" d="M29 46.415c9.576 0 17.416-7.832 17.416-17.462 0-9.576-7.833-17.416-17.416-17.416s-17.415 7.84-17.415 17.416c0 9.622 7.84 17.462 17.415 17.462"/><path fill="#eed85e" d="M29 44.82c8.708 0 15.821-7.16 15.821-15.867 0-8.661-7.113-15.766-15.821-15.766S13.179 20.3 13.179 28.953c0 8.708 7.113 15.868 15.821 15.868"/><path fill="#f0dd6a" d="M29 43.367c7.887 0 14.367-6.48 14.367-14.414 0-7.887-6.48-14.367-14.367-14.367s-14.367 6.48-14.367 14.367c0 7.934 6.48 14.414 14.367 14.414"/><path fill="#214a87" d="M11.78 19.761h3.627c.195 0 .438 0 .68.047.578.148 1.11.438 1.5.868.243.242.438.578.579.922h.094c.047-.047.094-.047.29-.094.53-.094 1.21-.29 2.078-.29.438 0 .923.048 1.4.15.437.093.82.242 1.164.484l-.047-.438h3.823l.093.774.047.625.626-1.016.242-.383h2.423l.196-.969.148-.68h4.354c.242 0 .438 0 .68.047.578.148 1.11.438 1.5.868.243.242.486.578.58.922h.093c.047-.047.094-.047.29-.094.53-.094 1.258-.29 2.079-.29.484 0 .969.048 1.399.15.531.093 1.016.289 1.399.625.149.148.242.289.383.484l.532-2.563.195-.68h3.916l-.242 1.063-1.728 7.691-.148.68h-6.769c-.196 0-.337.047-.532.047-.485.047-.97 0-1.352-.148-.532-.196-.923-.532-1.157-1.016-.243-.438-.336-1.017-.196-1.744-.578.337-1.258.485-1.985.485h-.82l-.392 1.696-.148.68h-3.869L29 27.648l.438-1.985-2.947 4.596-.242.383h-4.362l.867-1.352 1.306-1.884-.29-1.939-.578 2.517-.148.68h-3.487c-.195 0-.336.047-.531.047-.485.047-.97 0-1.4-.148a2.07 2.07 0 0 1-1.11-1.016c-.242-.438-.335-1.017-.195-1.744-.578.337-1.258.485-1.985.485h-.813l-.39 1.696-.15.68H9.068l.243-1.016 1.594-7.207.149-.68z"/><path fill="#fff" d="M11.78 20.628h3.627c1.063 0 2.322.774 1.938 2.416-.336 1.5-1.547 2.368-3.001 2.368h-1.548l-.531 2.369h-2.127zm26.311 1.79c.578-.094 1.305-.336 2.275-.336 1.352 0 2.853.391 2.517 1.986l-.821 3.72h-1.986l.094-.531c-1.063.97-3.72 1.016-3.29-1.259.289-1.399 1.79-1.837 4.017-1.837.094-.625-.336-.774-1.063-.727-.727 0-1.641.243-1.884.391zm.829 3.486c-.29.438.093.774.531.774.485-.047.922-.242 1.016-.727.047-.195.094-.336.149-.531h-.485c-.39 0-1.024.094-1.211.484m-20.511-3.486-.196 1.4c.29-.15 1.212-.391 1.939-.391.727-.047 1.156.093 1.016.727-2.173 0-3.674.437-3.963 1.837-.438 2.274 2.228 2.227 3.29 1.258l-.148.532h1.985l.868-3.721c.336-1.595-1.165-1.986-2.564-1.986-.922.008-1.65.25-2.227.344m.82 3.486c.196-.39.821-.484 1.165-.484h.485c0 .195-.047.336-.094.531-.094.485-.532.68-1.016.727-.446 0-.829-.336-.54-.774m4.933-3.626h2.032l.336 3.142 1.939-3.143h2.079l-4.792 7.497h-2.274l1.5-2.173zm20.753-2.181-1.743 7.691h2.126l1.743-7.691zm-13.445.531-1.594 7.16h2.079l.578-2.368h1.501c1.454 0 2.712-.868 3.002-2.369.383-1.641-.868-2.415-1.939-2.415H31.47zm1.79 1.454h1.063c.532 0 .868.438.727.97-.148.578-.68 1.016-1.258 1.016h-.97zm-19.69 0-.438 1.986h.97c.531 0 1.11-.438 1.258-1.017.094-.531-.195-.969-.774-.969zM13.18 38.043h-.868l-.774-4.018h.867l.532 3.143 1.594-3.143h.727zm6.002 0h-2.947l.774-4.018h2.846l-.149.626h-2.032l-.196 1.016h1.696l-.093.625h-1.697l-.242 1.11h2.126zm5.558 0h-.868l-.437-1.641h-1.063l-.337 1.641h-.82l.773-4.018h1.697c.336 0 .625 0 .82.047.196.094.384.196.532.391s.242.391.242.68c0 .242-.093.485-.242.727-.195.196-.485.336-.82.438zm-2.267-2.22h1.11c.336 0 .579-.094.68-.242a.62.62 0 0 0 .196-.438c0-.094-.047-.242-.149-.289-.047-.094-.148-.196-.242-.196-.094-.046-.29-.046-.485-.046h-.867zm5.026 2.22h-.82l.727-4.018h.867zm3.002 0h-.82l.773-4.018h2.76l-.094.626h-1.986l-.195 1.063h1.641l-.148.625h-1.595zm4.596 0h-.82l.773-4.018h.821zm5.175 0h-2.955l.774-4.018h2.853l-.148.626h-2.033l-.195 1.016h1.696l-.094.625h-1.696l-.242 1.11h2.126zm1.93 0 .727-4.018h1.353c.289 0 .531 0 .727.047s.39.149.531.29c.196.148.336.336.438.578.148.242.195.532.195.868s-.093.727-.242 1.016a2 2 0 0 1-.578.774c-.243.195-.438.289-.68.336a4.2 4.2 0 0 1-.923.094h-1.547zm.923-.625h.727c.242 0 .438 0 .578-.047.149-.094.29-.196.438-.29.149-.148.242-.335.29-.578.093-.289.148-.531.148-.82 0-.196-.047-.383-.149-.579-.047-.195-.195-.29-.336-.383-.195-.047-.39-.094-.68-.094h-.484z"/><path fill="#214a87" d="M12.991 37.802h-.922l-.774-4.065h.868l.578 3.19 1.548-3.19h.727zm5.949 0h-2.947l.774-4.065h2.853l-.094.626h-2.08l-.195 1.063h1.697l-.094.578h-1.696l-.196 1.165h2.126zm5.612 0h-.867L23.2 36.16h-1.063l-.29 1.642h-.82l.774-4.065h1.696c.336 0 .579.047.82.094.196.047.337.195.532.39.149.196.243.384.243.626 0 .29-.094.532-.29.774-.195.196-.437.336-.82.438zm-2.321-2.275h1.164c.337 0 .532-.047.68-.195a.8.8 0 0 0 .149-.438.9.9 0 0 0-.094-.336c-.094-.094-.195-.148-.289-.148-.094-.047-.242-.047-.485-.047h-.867zm5.026 2.275h-.82l.773-4.065h.82zm3.002 0h-.821l.774-4.065h2.806l-.149.626h-1.938l-.243 1.11h1.642l-.094.578h-1.641zm4.643 0h-.868l.774-4.065h.82zm5.127 0h-2.947l.774-4.065h2.853l-.093.626h-2.08l-.195 1.063h1.743l-.148.578h-1.697l-.195 1.165h2.126zm1.931 0 .774-4.065h1.305c.337 0 .579.047.774.094s.336.149.532.29c.195.148.289.335.438.578.093.242.148.531.148.82 0 .391-.047.727-.242 1.064a2 2 0 0 1-.579.773c-.195.196-.437.29-.625.337a4.6 4.6 0 0 1-.922.093H41.96zm.97-.625h.726c.243 0 .438 0 .579-.094.148-.047.242-.149.383-.29.148-.093.242-.289.336-.578.094-.242.094-.484.094-.774 0-.195 0-.437-.094-.578a.78.78 0 0 0-.383-.39 2.3 2.3 0 0 0-.625-.095h-.485z"/></g><defs><clipPath id="a"><path fill="#fff" d="M0 0h58v58H0z"/></clipPath></defs></svg>