<svg xmlns="http://www.w3.org/2000/svg" xmlns:xlink="http://www.w3.org/1999/xlink" width="1648" height="619" fill="none" viewBox="0 0 1648 619"><linearGradient id="a"><stop offset="0" stop-color="#007940"/><stop offset=".229" stop-color="#00873f"/><stop offset=".743" stop-color="#40a737"/><stop offset="1" stop-color="#5cb531"/></linearGradient><linearGradient xlink:href="#a" id="b" x1="1036.83" x2="1081.62" y1="457.066" y2="457.066" gradientUnits="userSpaceOnUse"/><linearGradient xlink:href="#a" id="c" x1="1036.83" x2="1081.62" y1="450.083" y2="450.083" gradientUnits="userSpaceOnUse"/><linearGradient xlink:href="#a" id="d" x1="1036.83" x2="1081.62" y1="442.488" y2="442.488" gradientUnits="userSpaceOnUse"/><linearGradient id="e" x1="936.561" x2="982.044" y1="450.083" y2="450.083" gradientUnits="userSpaceOnUse"><stop offset="0" stop-color="#1f286f"/><stop offset=".475" stop-color="#004e94"/><stop offset=".826" stop-color="#0066b1"/><stop offset="1" stop-color="#006fbc"/></linearGradient><linearGradient id="f" x1="986.458" x2="1030.63" y1="450.083" y2="450.083" gradientUnits="userSpaceOnUse"><stop offset="0" stop-color="#6c2c2f"/><stop offset=".173" stop-color="#882730"/><stop offset=".573" stop-color="#be1833"/><stop offset=".859" stop-color="#dc0436"/><stop offset="1" stop-color="#e60039"/></linearGradient><g fill="#0e0e0e"><path d="M937.158 211.626q-1.782 0-3.243-.293-1.462-.266-2.18-.584l1.914-6.512q2.18.585 3.881.505c1.701-.08 2.135-.479 3.003-1.276q1.33-1.196 2.339-3.907l.984-2.711-14.938-41.358h8.505l10.34 31.683h.425l10.339-31.683h8.532l-16.824 46.275q-1.17 3.19-2.977 5.395-1.808 2.233-4.306 3.349t-5.794 1.117M887.308 196.315v-54.434h7.947v20.227h.478q.691-1.276 1.994-2.951 1.302-1.674 3.614-2.923 2.313-1.276 6.114-1.276 4.944 0 8.824 2.498t6.087 7.203q2.232 4.705 2.232 11.323c0 6.618-.735 8.195-2.206 11.35q-2.205 4.704-6.06 7.256-3.854 2.525-8.798 2.525-3.72 0-6.086-1.249-2.34-1.25-3.668-2.924-1.329-1.675-2.047-2.977h-.664v6.352zm7.787-20.413q0 4.306 1.25 7.549 1.248 3.243 3.614 5.077 2.366 1.807 5.795 1.807 3.562 0 5.953-1.887 2.392-1.914 3.615-5.183 1.25-3.27 1.249-7.363 0-4.04-1.222-7.256-1.196-3.216-3.615-5.076-2.392-1.861-5.98-1.861-3.456 0-5.848 1.781-2.365 1.78-3.588 4.97t-1.223 7.442M857.326 165.458l-7.203 1.276q-.452-1.383-1.435-2.632-.957-1.25-2.605-2.046-1.648-.798-4.12-.798-3.375 0-5.635 1.515-2.259 1.489-2.259 3.854 0 2.047 1.515 3.296c1.515 1.249 2.64 1.515 4.891 2.047l6.485 1.488q5.635 1.302 8.399 4.014 2.764 2.71 2.764 7.043 0 3.669-2.126 6.539-2.1 2.844-5.874 4.465-3.748 1.621-8.691 1.621-6.858 0-11.19-2.923-4.333-2.95-5.316-8.373l7.681-1.169q.718 3.003 2.951 4.545 2.232 1.515 5.82 1.515 3.907 0 6.247-1.622 2.339-1.647 2.339-4.013 0-1.914-1.436-3.216-1.409-1.302-4.332-1.967l-6.911-1.515q-5.714-1.302-8.452-4.146-2.71-2.844-2.711-7.203 0-3.615 2.02-6.326 2.02-2.712 5.582-4.226 3.561-1.542 8.159-1.542 6.62 0 10.42 2.871 3.8 2.843 5.023 7.628M818.6 155.49v6.379h-22.3v-6.379zm-16.32-9.781h7.947v38.62q0 2.312.691 3.482.692 1.142 1.781 1.568a7.1 7.1 0 0 0 2.419.399q.957 0 1.674-.133.718-.133 1.117-.213l1.435 6.565q-.691.266-1.967.532-1.276.292-3.189.319-3.136.053-5.848-1.117a10.02 10.02 0 0 1-4.385-3.614q-1.675-2.446-1.675-6.14zM762.757 172.076v24.24h-7.947v-40.825h7.628v6.644h.505q1.409-3.242 4.412-5.209 3.03-1.967 7.628-1.967 4.173 0 7.31 1.754 3.136 1.728 4.864 5.157 1.727 3.428 1.727 8.478v25.968h-7.947v-25.011q0-4.438-2.312-6.937-2.312-2.525-6.353-2.525-2.764 0-4.917 1.196-2.127 1.196-3.376 3.509-1.222 2.285-1.222 5.528M728.476 197.14q-6.033 0-10.392-2.578-4.332-2.605-6.698-7.309-2.339-4.731-2.339-11.084 0-6.272 2.339-11.057 2.365-4.784 6.592-7.469 4.252-2.684 9.94-2.684 3.456 0 6.698 1.143c3.242 1.143 4.102 1.958 5.821 3.588s3.074 3.748 4.067 6.353q1.488 3.88 1.488 9.435v2.818h-32.453v-5.954h24.665q0-3.137-1.275-5.555-1.276-2.445-3.589-3.854-2.285-1.409-5.369-1.409-3.348 0-5.847 1.648a11.06 11.06 0 0 0-3.828 4.253q-1.328 2.604-1.329 5.661v4.651q0 4.094 1.436 6.964 1.462 2.871 4.066 4.386 2.606 1.488 6.087 1.488 2.26 0 4.12-.638a8.9 8.9 0 0 0 3.216-1.966q1.356-1.303 2.073-3.217l7.522 1.356a13.6 13.6 0 0 1-3.243 5.821q-2.311 2.471-5.82 3.854-3.483 1.356-7.948 1.355M644.731 196.316v-40.825h7.629v6.644h.505q1.275-3.375 4.173-5.262 2.897-1.914 6.937-1.914 4.094 0 6.857 1.914 2.791 1.914 4.12 5.262h.425q1.462-3.269 4.652-5.209 3.189-1.967 7.602-1.967 5.555 0 9.063 3.482 3.535 3.482 3.535 10.499v27.376h-7.947v-26.632q0-4.147-2.259-6.007c-2.259-1.86-3.305-1.861-5.396-1.861q-3.88 0-6.033 2.393-2.154 2.366-2.153 6.086v26.021h-7.921v-27.137q0-3.323-2.073-5.343t-5.396-2.02a7.7 7.7 0 0 0-4.173 1.197q-1.887 1.169-3.056 3.269-1.143 2.1-1.143 4.864v25.17zM607.361 211.626q-1.781 0-3.243-.293-1.462-.266-2.179-.584l1.913-6.512q2.18.585 3.881.505c1.701-.08 2.135-.479 3.003-1.276q1.33-1.196 2.339-3.907l.984-2.711-14.938-41.358h8.505l10.34 31.683h.425l10.339-31.683h8.532l-16.824 46.275q-1.17 3.19-2.977 5.395-1.807 2.233-4.306 3.349t-5.794 1.117M573.066 197.22q-3.88 0-7.017-1.435-3.136-1.462-4.97-4.226-1.808-2.764-1.808-6.778 0-3.456 1.329-5.688c1.329-2.232 2.082-2.667 3.589-3.535q2.259-1.302 5.05-1.967t5.688-1.01l5.953-.691q2.286-.292 3.323-.93t1.037-2.073v-.186q0-3.483-1.967-5.396-1.94-1.914-5.795-1.914-4.013 0-6.326 1.781-2.285 1.754-3.162 3.907l-7.469-1.701q1.329-3.721 3.88-6.007a15.75 15.75 0 0 1 5.927-3.349q3.35-1.063 7.044-1.063 2.445 0 5.183.585a15.2 15.2 0 0 1 5.156 2.073q2.42 1.515 3.961 4.332 1.54 2.791 1.541 7.257v27.11h-7.761v-5.581h-.319q-.77 1.542-2.312 3.03c-1.542 1.488-2.348 1.816-3.961 2.472q-2.418.983-5.794.983m1.728-6.379q3.295 0 5.635-1.302 2.365-1.304 3.588-3.402a8.8 8.8 0 0 0 1.249-4.546v-5.262q-.425.425-1.648.797-1.196.346-2.738.611-1.54.24-3.003.452a352 352 0 0 0-2.445.319q-2.313.292-4.226.984-1.887.69-3.03 1.993-1.117 1.276-1.117 3.402 0 2.95 2.18 4.466 2.179 1.488 5.555 1.488M514.99 211.626v-56.135h7.761v6.618h.665q.691-1.276 1.993-2.95t3.615-2.924q2.312-1.276 6.113-1.276 4.944 0 8.825 2.498t6.086 7.203q2.233 4.705 2.233 11.323c0 6.618-.735 8.196-2.206 11.35q-2.207 4.704-6.06 7.256-3.854 2.525-8.798 2.525-3.72 0-6.087-1.249-2.338-1.25-3.667-2.924c-1.329-1.674-1.569-2.109-2.047-2.977h-.479v21.662zm7.788-35.722q0 4.305 1.249 7.548c1.249 3.243 2.038 3.854 3.615 5.077q2.365 1.807 5.794 1.807 3.562 0 5.954-1.887 2.392-1.914 3.615-5.183 1.25-3.27 1.249-7.362 0-4.041-1.223-7.257-1.196-3.216-3.614-5.076-2.393-1.861-5.981-1.861-3.454 0-5.847 1.781-2.365 1.78-3.588 4.97t-1.223 7.443M468.849 197.14q-6.033 0-10.392-2.578-4.332-2.605-6.698-7.309-2.339-4.731-2.339-11.084 0-6.272 2.339-11.057 2.365-4.784 6.592-7.469 4.252-2.684 9.94-2.684 3.455 0 6.698 1.143c3.243 1.143 4.102 1.958 5.821 3.588s3.074 3.748 4.067 6.353q1.488 3.88 1.488 9.435v2.818h-32.453v-5.954h24.665q0-3.137-1.275-5.555-1.276-2.445-3.589-3.854-2.285-1.409-5.369-1.409-3.348 0-5.847 1.648a11.05 11.05 0 0 0-3.827 4.253q-1.329 2.604-1.329 5.661v4.651q0 4.094 1.435 6.964 1.462 2.871 4.066 4.386 2.605 1.488 6.087 1.488 2.26 0 4.12-.638a8.9 8.9 0 0 0 3.216-1.966q1.356-1.303 2.073-3.217l7.522 1.356a13.6 13.6 0 0 1-3.242 5.821q-2.313 2.471-5.821 3.854-3.483 1.356-7.948 1.355M423.989 196.316V155.49h7.682v6.486h.425q1.116-3.297 3.934-5.183 2.844-1.914 6.432-1.914.744 0 1.754.053 1.037.054 1.621.133v7.602q-.478-.133-1.701-.293a16 16 0 0 0-2.445-.186q-2.817 0-5.023 1.196a8.9 8.9 0 0 0-3.456 3.27q-1.276 2.073-1.276 4.731v24.931zM405.337 179.385V155.49h7.974v40.826h-7.814v-7.07h-.425q-1.41 3.27-4.519 5.449-3.083 2.153-7.681 2.153-3.934 0-6.964-1.728-3.004-1.754-4.731-5.183-1.701-3.429-1.701-8.479V155.49h7.947v25.011q0 4.173 2.312 6.645 2.313 2.472 6.007 2.472 2.233 0 4.439-1.116 2.233-1.117 3.694-3.376 1.49-2.26 1.462-5.741M354.206 197.14q-5.928 0-10.207-2.684-4.252-2.712-6.538-7.469c-2.286-4.757-2.286-6.804-2.286-10.897q0-6.22 2.339-10.978 2.338-4.784 6.591-7.469 4.254-2.684 10.021-2.684 4.651 0 8.293 1.728 3.64 1.7 5.874 4.784 2.26 3.082 2.684 7.203h-7.734q-.638-2.871-2.924-4.944-2.259-2.073-6.06-2.073-3.322 0-5.821 1.754-2.472 1.728-3.854 4.944-1.382 3.19-1.382 7.549 0 4.464 1.355 7.708 1.356 3.242 3.828 5.023 2.498 1.78 5.874 1.781 2.259 0 4.093-.824a8.36 8.36 0 0 0 3.11-2.419q1.275-1.567 1.781-3.774h7.734q-.425 3.96-2.578 7.07c-2.153 3.11-3.358 3.703-5.768 4.891q-3.588 1.78-8.425 1.78M310.676 197.14q-6.034 0-10.393-2.578-4.332-2.605-6.698-7.309-2.339-4.731-2.339-11.084 0-6.272 2.339-11.057 2.365-4.784 6.592-7.469 4.252-2.684 9.94-2.684 3.456 0 6.698 1.143t5.821 3.588 4.067 6.353q1.488 3.88 1.488 9.435v2.818h-32.453v-5.954h24.666q0-3.137-1.276-5.555-1.277-2.445-3.588-3.854-2.286-1.409-5.369-1.409-3.35 0-5.848 1.648a11.05 11.05 0 0 0-3.827 4.253q-1.329 2.604-1.329 5.661v4.651q0 4.094 1.435 6.964 1.462 2.871 4.067 4.386 2.604 1.488 6.086 1.488 2.26 0 4.12-.638a8.9 8.9 0 0 0 3.216-1.966q1.356-1.303 2.073-3.217l7.522 1.356a13.6 13.6 0 0 1-3.242 5.821q-2.313 2.471-5.821 3.854-3.482 1.356-7.947 1.355M275.239 156.181q-.425-3.775-3.509-5.848-3.083-2.1-7.761-2.1-3.35 0-5.794 1.064-2.446 1.037-3.801 2.87-1.329 1.807-1.329 4.12 0 1.94.903 3.349a8.1 8.1 0 0 0 2.419 2.366q1.515.93 3.243 1.568 1.728.61 3.322 1.01l5.316 1.382a40.6 40.6 0 0 1 5.343 1.727 21.4 21.4 0 0 1 5.076 2.871 13.75 13.75 0 0 1 3.775 4.412q1.461 2.631 1.461 6.3 0 4.624-2.392 8.213-2.365 3.588-6.884 5.661-4.491 2.073-10.871 2.073-6.113 0-10.578-1.94-4.465-1.941-6.991-5.502-2.524-3.588-2.791-8.505h8.24q.24 2.949 1.914 4.917 1.701 1.94 4.332 2.897 2.658.93 5.821.93 3.482 0 6.193-1.09 2.737-1.116 4.306-3.083 1.568-1.993 1.568-4.651 0-2.42-1.382-3.961-1.356-1.541-3.695-2.551-2.312-1.01-5.236-1.781l-6.432-1.754q-6.538-1.781-10.366-5.236-3.801-3.456-3.801-9.144 0-4.704 2.552-8.213c2.552-3.509 4.005-4.155 6.911-5.448q4.359-1.968 9.834-1.967 5.529 0 9.755 1.94 4.252 1.94 6.698 5.342 2.445 3.376 2.551 7.762zM159.995 113.322c10.31 0 18.657 8.336 18.657 18.631v17.039h13.634a2.7 2.7 0 0 1 2.704 2.7v56.14a2.703 2.703 0 0 1-2.704 2.701h-64.582a2.703 2.703 0 0 1-2.704-2.701v-56.14c0-1.491 1.211-2.7 2.704-2.7h13.634v-17.039c0-10.295 8.348-18.631 18.657-18.631m22.194 50.912c-1.253-1.196-3.271-1.196-4.525 0l-22.156 21.146-9.946-9.493a3.3 3.3 0 0 0-4.527 0 3.034 3.034 0 0 0 0 4.419l12.21 11.653a3.303 3.303 0 0 0 4.526 0l24.418-23.306a3.03 3.03 0 0 0 0-4.419m-22.194-45.511c-7.323 0-13.249 5.918-13.249 13.23v17.039h26.498v-17.039c0-7.312-5.926-13.23-13.249-13.23"/></g><path fill="#e62a97" d="M1407.49 125.16c.85-.383 1.81.237 1.81 1.169v10.693c0 .52-.32.989-.8 1.186l-11.08 4.554a1.284 1.284 0 0 1-1.77-1.187v-10.237c0-.504.29-.961.75-1.169z"/><path fill="#0e0e0e" d="M1502.06 200.25c-13.46 0-21.93-7.113-24.54-16.628-.21-.782.4-1.527 1.21-1.527h10.35c.59 0 1.09.404 1.29.958 1.66 4.708 6.21 6.719 11.69 6.719 5 0 7.71-2.282 7.71-5.498 0-2.179-1.77-4.046-5.42-4.98l-11.15-2.594c-10-2.386-15.1-7.573-15.1-15.768 0-10.271 8.54-16.91 20.1-16.91 13.09 0 21.28 7.331 23.38 16.894.17.767-.43 1.468-1.22 1.468h-10.33c-.58 0-1.09-.398-1.28-.948-1.75-4.913-6.43-6.936-10.65-6.936-4.37 0-6.67 2.178-6.67 4.979s2.19 4.669 6.46 5.706l10.32 2.49c9.89 2.386 14.79 7.573 14.79 15.561 0 9.648-7.92 17.014-20.94 17.014M1420.17 179.502v-28.478c0-.52.31-.989.8-1.187l11.08-4.553c.84-.347 1.77.274 1.77 1.186v30.334c0 6.64 4.48 11.516 11.14 11.516 6.67 0 11.26-4.669 11.26-11.516v-25.78c0-.52.31-.989.79-1.187l11.08-4.553a1.28 1.28 0 0 1 1.77 1.186v51.252a1.28 1.28 0 0 1-1.28 1.283h-11.08a1.28 1.28 0 0 1-1.28-1.283v-3.489c-3.75 3.838-8.96 6.017-14.8 6.017-12.6 0-21.25-9.129-21.25-20.748M1408.01 199.005c.71 0 1.29-.574 1.29-1.283V146.47c0-.912-.93-1.533-1.77-1.186l-11.09 4.553a1.28 1.28 0 0 0-.79 1.187v46.698c0 .709.57 1.283 1.28 1.283zM1313.52 199.005c.7 0 1.28-.574 1.28-1.283V167.26c0-6.847 4.37-11.204 10.73-11.204 6.35 0 10.73 4.565 10.73 11.204v30.462c0 .709.57 1.283 1.28 1.283h10.98c.71 0 1.28-.574 1.28-1.283V167.26c0-6.847 4.48-11.204 10.73-11.204 6.36 0 10.73 4.565 10.73 11.204v30.462c0 .709.58 1.283 1.29 1.283h10.97c.71 0 1.29-.574 1.29-1.283v-33.263c0-11.515-8.23-20.541-20.53-20.541-7.29 0-13.64 3.527-17.29 9.441-3.44-5.706-9.79-9.441-17.71-9.441-5.63 0-10.84 2.179-14.48 5.81v-3.075c0-.708-.58-1.283-1.28-1.283h-10.98c-.71 0-1.29.575-1.29 1.283v51.069c0 .709.58 1.283 1.29 1.283z"/><path fill="#0e0e0e" fill-rule="evenodd" d="M1238.06 179.237c-3.88-14.43 4.29-30.144 19.69-34.252 15.6-4.162 29.77 4.409 34.11 20.542l.69 2.566c.18.686-.22 1.39-.91 1.573l-38.91 10.382c3.52 6.257 10.48 9.664 17.72 7.731 3.75-1.001 6.71-2.729 9.01-5.585.26-.316.64-.51 1.04-.51h10.92c.9 0 1.52.907 1.14 1.727-3.53 7.622-9.99 13.164-18.99 15.564-15.9 4.242-31.25-3.906-35.51-19.738m22.41-22.948c-6.14 1.638-10.12 6.888-10.23 13.685l26.66-7.116c-3.63-5.903-10.09-8.261-16.43-6.569M1196.93 144.985c-15.4 4.108-23.57 19.822-19.69 34.252 4.26 15.832 19.61 23.98 35.51 19.738 9-2.4 15.46-7.942 18.99-15.564.38-.82-.24-1.727-1.14-1.727h-10.92c-.4 0-.78.194-1.04.51-2.3 2.856-5.26 4.584-9.01 5.585-7.24 1.933-14.2-1.474-17.72-7.731l38.91-10.382c.69-.183 1.09-.887.91-1.573l-.69-2.566c-4.34-16.133-18.51-24.704-34.11-20.542m-7.51 24.989c.11-6.797 4.09-12.047 10.23-13.685 6.34-1.692 12.8.666 16.43 6.569z" clip-rule="evenodd"/><path fill="#0e0e0e" d="M1174.46 156.018c0 .709-.58 1.283-1.29 1.283h-3.61c-6.46 0-11.46 4.668-11.46 12.864v27.557c0 .709-.58 1.283-1.28 1.283h-11.09c-.7 0-1.28-.574-1.28-1.283v-51.069c0-.708.58-1.282 1.28-1.282h10.98c.71 0 1.28.574 1.28 1.282v4.527c2.71-3.942 6.98-6.328 12.82-6.328h2.36c.71 0 1.29.574 1.29 1.283zM1091.16 197.722c0 .709.57 1.283 1.28 1.283h11.5c.71 0 1.28-.574 1.28-1.283v-29.113h29.56c.71 0 1.28-.575 1.28-1.283v-9.365a1.28 1.28 0 0 0-1.28-1.283h-29.56v-18.051h30.6c.71 0 1.28-.574 1.28-1.282v-9.677a1.28 1.28 0 0 0-1.28-1.282h-43.38c-.71 0-1.28.574-1.28 1.282v35.027z"/><path fill="#6753ff" d="M1016.12 132.835c0-.813.43-1.564 1.14-1.968l57.68-33.061c.86-.49 1.92.127 1.92 1.113v22.196c0 .813-.43 1.564-1.14 1.968l-57.68 33.061c-.86.49-1.92-.127-1.92-1.113z"/><path fill="#902af5" d="M1016.12 164.88c0-.81.43-1.558 1.13-1.964l37.95-21.982c.85-.495 1.92.122 1.92 1.11v22.191c0 .809-.43 1.557-1.13 1.963l-37.95 21.983c-.85.495-1.92-.122-1.92-1.11z"/><path fill="#e62a97" d="M1018.32 196.658c-.93-.441-.99-1.747-.1-2.268l20.32-11.862c.86-.499 1.93.118 1.93 1.108v21.466c0 .941-.98 1.562-1.83 1.159z"/><path fill="#94949c" d="M1523 299.352v3H125v-3z"/><path fill="url(#b)" d="M1045.72 461.84h10.47c.29 0 .99-.1 1.29-.1 1.99-.399 3.69-2.193 3.69-4.684 0-2.392-1.7-4.187-3.69-4.685-.3-.1-.9-.1-1.29-.1h-10.47z"/><path fill="url(#c)" d="M1054.99 395.76c-9.97 0-18.14 8.073-18.14 18.139v18.837h25.61c.6 0 1.3 0 1.8.1 5.78.299 10.06 3.289 10.06 8.472 0 4.086-2.89 7.575-8.27 8.272v.2c5.88.398 10.37 3.687 10.37 8.77 0 5.482-4.99 9.07-11.56 9.07h-28.11v36.877h26.61c9.97 0 18.14-8.073 18.14-18.139V395.76z"/><path fill="url(#d)" d="M1059.87 442.503c0-2.392-1.69-3.987-3.68-4.286-.2 0-.7-.1-1-.1h-9.47v8.771h9.47c.3 0 .9 0 1-.1 1.99-.299 3.68-1.893 3.68-4.285"/><path fill="url(#e)" d="M954.724 395.76c-9.967 0-18.14 8.073-18.14 18.139v44.751c5.083 2.492 10.365 4.086 15.648 4.086 6.279 0 9.668-3.787 9.668-8.97v-21.129h15.548v21.03c0 8.172-5.083 14.85-22.326 14.85-10.465 0-18.638-2.292-18.638-2.292v38.172h26.612c9.966 0 18.139-8.073 18.139-18.139V395.76z"/><path fill="url(#f)" d="M1004.86 395.76c-9.97 0-18.143 8.073-18.143 18.139v23.721c4.585-3.887 12.558-6.379 25.413-5.781 6.88.299 14.25 2.193 14.25 2.193v7.675c-3.68-1.894-8.07-3.588-13.75-3.987-9.77-.698-15.647 4.086-15.647 12.458 0 8.472 5.877 13.256 15.647 12.459 5.68-.399 10.07-2.193 13.75-3.987v7.674s-7.27 1.894-14.25 2.193c-12.855.598-20.828-1.894-25.413-5.781v41.861h26.613c9.96 0 18.14-8.073 18.14-18.14V395.76z"/><path fill="#006fcf" d="M719.484 510.826h121.472V389.354H719.484z"/><path fill="#fff" d="m763.487 491.603 48.032.102 7.543-8.416 7.597 8.384h14.297v-12.278l-8.954-9.656 8.954-9.569v-12.023l-77.469-.069z"/><path fill="#006fcf" fill-rule="evenodd" d="M768.662 486.834V452.87h28.798v7.824h-19.474v5.311h19.01v7.694h-19.01v5.217h19.474v7.918z" clip-rule="evenodd"/><path fill="#006fcf" d="m829.152 452.871-9.765 10.765-9.737-10.765h-12.335l15.936 16.962-15.935 17.001h11.998l9.809-10.873 9.91 10.873h11.922v-.482l-15.595-16.519 15.595-16.695v-.267z"/><path fill="#fff" d="m823.353 409.445-3.989 11.158-3.976-11.158h-23.053v14.893l-6.559-14.893h-18.674l-19.179 43.526h93.034v-43.526z"/><path fill="#006fcf" fill-rule="evenodd" d="m771.931 433.7 4.52-10.803 4.516 10.803zm-1.295-19.524-15.07 33.935h10.337l2.842-6.795h15.406l2.841 6.795h10.593l-15.008-33.935z" clip-rule="evenodd"/><path fill="#006fcf" d="M797.443 448.104h9.138v-23.309l8.67 23.309h8.213l8.494-23.23v23.31l8.997-.08V414.17h-13.983l-7.524 20.912-7.475-20.862-14.53-.05z"/><path fill="#1434cb" d="M288.339 409.273c-17.422 0-32.992 8.997-32.992 25.616 0 19.06 27.613 20.377 27.613 29.953 0 4.033-4.638 7.642-12.561 7.642-11.242 0-19.645-5.043-19.645-5.043l-3.596 16.772s9.68 4.26 22.531 4.26c19.047 0 34.038-9.437 34.038-26.342 0-20.142-27.728-21.419-27.728-30.306 0-3.158 3.807-6.618 11.706-6.618 8.913 0 16.184 3.668 16.184 3.668l3.519-16.198s-7.913-3.404-19.072-3.404zm-159.4 1.224-.422 2.444s7.329 1.336 13.931 4.003c8.501 3.056 9.105 4.837 10.537 10.362l15.599 59.905h20.912l32.216-76.714h-20.863l-20.701 52.158-8.447-44.213c-.773-5.06-4.698-7.948-9.5-7.948h-33.259zm101.163 0-16.365 76.714h19.895l16.306-76.714zm110.961 0c-4.797 0-7.339 2.559-9.203 7.029l-29.148 69.685h20.863l4.036-11.615h25.416l2.454 11.615h18.409l-16.058-76.714zm2.714 20.726 6.185 28.787h-16.567l10.385-28.787z"/><path fill="#000" d="M497.401 508.712v-7.939c0-3.037-1.85-5.025-5.025-5.025-1.588 0-3.314.524-4.501 2.25-.925-1.449-2.251-2.25-4.24-2.25-1.325 0-2.651.4-3.699 1.849v-1.587h-2.775v12.702h2.775v-7.014c0-2.251 1.187-3.314 3.037-3.314s2.774 1.187 2.774 3.314v7.014h2.775v-7.014c0-2.251 1.326-3.314 3.037-3.314 1.85 0 2.774 1.187 2.774 3.314v7.014zm41.158-12.702h-4.501v-3.839h-2.775v3.839h-2.512v2.512h2.512v5.827c0 2.914 1.187 4.625 4.363 4.625 1.187 0 2.512-.401 3.437-.925l-.801-2.39c-.802.525-1.727.663-2.39.663-1.325 0-1.85-.801-1.85-2.112v-5.688h4.502v-2.512zm23.554-.278c-1.588 0-2.651.802-3.314 1.85v-1.588h-2.775v12.702h2.775v-7.152c0-2.112.925-3.315 2.651-3.315.524 0 1.187.139 1.727.262l.801-2.651c-.555-.108-1.341-.108-1.865-.108m-35.593 1.326c-1.326-.925-3.176-1.326-5.164-1.326-3.176 0-5.287 1.588-5.287 4.101 0 2.111 1.587 3.314 4.362 3.699l1.326.139c1.449.262 2.25.663 2.25 1.326 0 .925-1.063 1.587-2.913 1.587s-3.314-.662-4.239-1.325l-1.326 2.112c1.449 1.063 3.438 1.587 5.426 1.587 3.7 0 5.827-1.726 5.827-4.1 0-2.251-1.726-3.438-4.362-3.838l-1.326-.139c-1.187-.139-2.112-.401-2.112-1.187 0-.925.925-1.449 2.389-1.449 1.588 0 3.176.663 3.977 1.063zm73.822-1.326c-1.587 0-2.651.802-3.314 1.85v-1.588h-2.775v12.702h2.775v-7.152c0-2.112.925-3.315 2.651-3.315.525 0 1.187.139 1.727.262l.802-2.62c-.54-.139-1.326-.139-1.866-.139m-35.454 6.629c0 3.838 2.651 6.613 6.752 6.613 1.849 0 3.175-.401 4.501-1.449l-1.326-2.251c-1.064.802-2.112 1.187-3.314 1.187-2.251 0-3.838-1.588-3.838-4.1 0-2.39 1.587-3.977 3.838-4.101 1.187 0 2.25.401 3.314 1.187l1.326-2.25c-1.326-1.064-2.652-1.449-4.501-1.449-4.101-.016-6.752 2.774-6.752 6.613m25.666 0v-6.351h-2.775v1.587c-.925-1.187-2.25-1.849-3.977-1.849-3.576 0-6.351 2.774-6.351 6.613 0 3.838 2.775 6.613 6.351 6.613 1.85 0 3.176-.663 3.977-1.85v1.588h2.775zm-10.189 0c0-2.251 1.449-4.101 3.838-4.101 2.25 0 3.838 1.727 3.838 4.101 0 2.25-1.588 4.1-3.838 4.1-2.374-.139-3.838-1.865-3.838-4.1m-33.204-6.629c-3.7 0-6.351 2.652-6.351 6.613 0 3.977 2.651 6.613 6.489 6.613 1.85 0 3.7-.524 5.164-1.726l-1.325-1.989c-1.064.802-2.39 1.326-3.7 1.326-1.726 0-3.437-.802-3.838-3.037h9.387v-1.063c.124-4.085-2.266-6.737-5.826-6.737m0 2.39c1.726 0 2.913 1.063 3.175 3.036h-6.613c.262-1.711 1.449-3.036 3.438-3.036m68.935 4.239v-11.377h-2.774v6.613c-.925-1.187-2.251-1.849-3.977-1.849-3.577 0-6.351 2.774-6.351 6.613 0 3.838 2.774 6.613 6.351 6.613 1.849 0 3.175-.663 3.977-1.85v1.588h2.774zm-10.189 0c0-2.251 1.449-4.101 3.838-4.101 2.251 0 3.839 1.727 3.839 4.101 0 2.25-1.588 4.1-3.839 4.1-2.389-.139-3.838-1.865-3.838-4.1m-92.891 0v-6.351h-2.774v1.587c-.925-1.187-2.251-1.849-3.977-1.849-3.577 0-6.351 2.774-6.351 6.613 0 3.838 2.774 6.613 6.351 6.613 1.849 0 3.175-.663 3.977-1.85v1.588h2.774zm-10.312 0c0-2.251 1.449-4.101 3.838-4.101 2.251 0 3.838 1.727 3.838 4.101 0 2.25-1.587 4.1-3.838 4.1-2.389-.139-3.838-1.865-3.838-4.1"/><path fill="#ff5a00" d="M567.277 399.541h-41.682v74.886h41.682z"/><path fill="#eb001b" d="M528.37 436.984c0-15.215 7.152-28.718 18.128-37.443-8.078-6.351-18.267-10.189-29.381-10.189-26.329 0-47.633 21.303-47.633 47.632s21.304 47.632 47.633 47.632c11.114 0 21.303-3.838 29.381-10.189-10.991-8.602-18.128-22.229-18.128-37.443"/><path fill="#f79e1b" d="M623.51 436.984c0 26.329-21.303 47.632-47.632 47.632-11.114 0-21.303-3.838-29.381-10.189 11.114-8.74 18.128-22.229 18.128-37.443 0-15.215-7.152-28.718-18.128-37.443 8.062-6.351 18.251-10.189 29.366-10.189 26.344 0 47.647 21.442 47.647 47.632"/><path fill="#002990" d="M1475.08 396.075c12.7-.424 25.1 7.917 28.62 20.302.6 2.097.85 5.97.82 7.899l-.75-.12c-3.86-1.882-8.08-2.916-12.35-3.276l-36.61.016-5.76 36.577-.25.104c-1.57 12.319-3.46 24.612-5.77 36.811l-.04.227h-25.51s9.36-61.521 13.11-85.494c.68-4.36 1.46-8.704 2.25-13.046 13.83-.1 28.37-.1 42.24 0"/><path fill="#60ccfe" d="M1504.52 424.279c17.14 8.877 19.21 29.243 7.97 43.935-6.85 8.949-16.72 13.568-27.95 13.949-4.76.161-9.56-.143-14.32.011l-5.9 36.795h-25.37c1.3-8.201 2.76-16.382 4.08-24.578 1.96-12.26 3.85-24.544 5.77-36.811l.08-.227h21.21c17.41-.279 33.55-14.76 34.19-32.455z"/><path fill="#008bfe" d="M1504.52 424.279c-.19 18.196-17.12 33.43-35.04 33.306l-20.68-.005 5.79-36.908 36.85-.014c4.56.388 9.02 1.519 13.08 3.623z"/><path fill="#000" d="M1254.73 516.573h-63.69a10.573 10.573 0 0 1-10.56-10.552V402.184c.01-2.798 1.12-5.48 3.1-7.459a10.56 10.56 0 0 1 7.46-3.092h63.69c60.69 0 69.75 39.052 69.75 62.326 0 40.378-24.77 62.614-69.75 62.614m-63.69-120.897c-1.73.002-3.38.688-4.6 1.908s-1.91 2.875-1.91 4.6v103.837c0 1.726.69 3.38 1.91 4.601a6.5 6.5 0 0 0 4.6 1.908h63.69c42.38 0 65.71-20.787 65.71-58.571 0-50.714-41.16-58.283-65.71-58.283z"/><path fill="#c06" d="M1219.84 412.248v90.541h39.43c35.8 0 51.33-20.236 51.33-48.743 0-27.339-15.53-48.593-51.33-48.593h-32.59a6.842 6.842 0 0 0-6.84 6.795"/><path fill="#fff" d="M1234.83 442.218c1.27-.01 2.53.206 3.73.638a8.2 8.2 0 0 1 2.98 1.935 8.85 8.85 0 0 1 1.98 3.197c.5 1.449.75 2.976.72 4.509.01 1.419-.19 2.832-.58 4.194a9.5 9.5 0 0 1-1.76 3.311 8.26 8.26 0 0 1-2.94 2.194 9.9 9.9 0 0 1-4.14.802h-8.76v-20.787zm-.33 16.91a6 6 0 0 0 1.92-.316c.63-.221 1.2-.584 1.66-1.061.52-.553.92-1.213 1.16-1.935.32-.937.46-1.922.44-2.91.01-.964-.09-1.927-.3-2.867a5.75 5.75 0 0 0-1.01-2.151 4.4 4.4 0 0 0-1.85-1.376 7.3 7.3 0 0 0-2.83-.48h-3.07v13.096zM1263.05 442.219v3.842h-10.76v4.466h9.87v3.548h-9.92v5.053h11v3.835h-15.56v-20.787zM1278.46 442.219l7.76 20.787h-4.74l-1.57-4.623h-7.77l-1.62 4.623h-4.61l7.89-20.787zm.26 12.737-2.62-7.619h-.06l-2.7 7.619zM1293.46 442.256v16.924h9.92v3.842h-14.49v-20.788z"/><path fill="#000" d="M1202.03 468.318a7.552 7.552 0 0 1 7.56 7.563v26.909c-4.01 0-7.85-1.593-10.69-4.428a15.13 15.13 0 0 1-4.42-10.69v-11.798c0-2.004.8-3.924 2.21-5.341a7.58 7.58 0 0 1 5.34-2.215M1202.03 462.583c5.51 0 9.98-4.467 9.98-9.978s-4.47-9.978-9.98-9.978-9.98 4.467-9.98 9.978 4.47 9.978 9.98 9.978"/></svg>