<svg xmlns="http://www.w3.org/2000/svg" width="18" height="22" fill="none" viewBox="0 0 18 22"><path stroke="#000" stroke-linecap="round" stroke-linejoin="round" stroke-width="2" d="m6 10.432 2 2 4.5-4.5m4.5 3c0 4.908-5.354 8.478-7.302 9.615-.221.129-.332.194-.488.227a1.1 1.1 0 0 1-.42 0c-.156-.033-.266-.098-.488-.227C6.354 19.41 1 15.84 1 10.932V6.15c0-.8 0-1.2.131-1.543a2 2 0 0 1 .547-.79c.276-.243.65-.383 1.399-.664l5.361-2.01c.208-.078.312-.117.42-.133a1 1 0 0 1 .285 0c.107.016.211.055.419.133l5.362 2.01c.748.281 1.123.421 1.399.665a2 2 0 0 1 .546.789C17 4.95 17 5.35 17 6.15z"/></svg>