<svg xmlns="http://www.w3.org/2000/svg" width="76" height="24" fill="none" viewBox="0 0 76 24"><path fill="#172b85" fill-rule="evenodd" d="M18.8 23.815h-6.507L7.413 5.195c-.232-.856-.724-1.614-1.448-1.97C4.16 2.329 2.17 1.614 0 1.254V.538h10.484a2.73 2.73 0 0 1 2.713 2.328l2.532 13.43L22.234.538h6.327zm13.376 0H26.03L31.09.537h6.146zm13.016-16.83c.181-1.254 1.266-1.97 2.532-1.97 1.99-.18 4.157.18 5.966 1.073l1.085-5.011A15.6 15.6 0 0 0 49.171 0c-5.965 0-10.306 3.224-10.306 7.699 0 3.404 3.075 5.191 5.245 6.268 2.348 1.074 3.253 1.79 3.072 2.864 0 1.61-1.809 2.328-3.614 2.328-2.17 0-4.341-.537-6.328-1.434l-1.085 5.014c2.17.894 4.519 1.254 6.689 1.254 6.689.177 10.846-3.044 10.846-7.879 0-6.088-8.498-6.445-8.498-9.129m30.01 16.83L70.322.537H65.08c-1.086 0-2.17.717-2.533 1.79L53.51 23.816h6.328l1.262-3.402h7.775l.723 3.401zM65.98 6.801l1.806 8.772h-5.061z" clip-rule="evenodd"/></svg>