<svg id="magnitude-icon"
    xmlns="http://www.w3.org/2000/svg" viewBox="0 0 24 24">
    <defs>
        <style>.cls-1,.cls-2{fill:none;stroke:#000;stroke-width:0.8px;}.cls-1{stroke-linecap:round;stroke-linejoin:round;}.cls-2{stroke-miterlimit:10;}</style>
    </defs>
    <polygon class="cls-1" points="21 5.82 20.96 5.82 21 5.86 21 5.82"/>
    <path class="cls-1" d="M21,16.3V5.86H.4V21H16.3"/>
    <polygon class="cls-1" points="16.01 0.4 4.77 0.4 0.43 5.82 20.96 5.82 16.01 0.4"/>
    <circle class="cls-2" cx="4.78" cy="12" r="1.5"/>
    <circle class="cls-2" cx="10.78" cy="12" r="1.5"/>
    <circle class="cls-2" cx="16.78" cy="12" r="1.5"/>
    <path d="M20,16.7a3.31,3.31,0,1,1-2.33,1,3.24,3.24,0,0,1,2.33-1m0-.7a4,4,0,1,0,2.83,1.17A4,4,0,0,0,20,16Z"/>
    <path d="M21.46,20.28,21.75,19a.15.15,0,0,0-.15-.18H19.22l-.06-.27a.14.14,0,0,0-.14-.12H18.4a.15.15,0,0,0-.15.15v.1a.15.15,0,0,0,.15.14h.42l.43,2.09a.35.35,0,0,0-.17.3.34.34,0,0,0,.34.34.35.35,0,0,0,.34-.34.33.33,0,0,0-.11-.25h1.28a.36.36,0,0,0-.1.25.34.34,0,0,0,.34.34.35.35,0,0,0,.34-.34.34.34,0,0,0-.19-.31l0-.15a.15.15,0,0,0-.14-.18H19.58l0-.19h1.78A.16.16,0,0,0,21.46,20.28Z"/>
</svg>