<svg id="magnitude-icon"
    xmlns="http://www.w3.org/2000/svg" viewBox="0 0 24 24">
    <defs>
        <style>.cls-1{fill:none;stroke:#000;stroke-linecap:round;stroke-linejoin:round;stroke-width:0.8px;}</style>
    </defs>
    <path d="M12.62,12.46l2.78,1.83v2H5.53v-.68l2.13-2,1.61,1.34.49.41.46-.46,2.4-2.42m0-.79h-.06a.41.41,0,0,0-.19.08L9.72,14.39,7.84,12.84a.38.38,0,0,0-.19-.05h0a.49.49,0,0,0-.21.08L4.83,15.32v1.12a.53.53,0,0,0,.21.4.83.83,0,0,0,.5.16H15.4a.84.84,0,0,0,.27,0,.78.78,0,0,0,.22-.12.7.7,0,0,0,.16-.19.5.5,0,0,0,.05-.21V13.91L12.74,11.7a.45.45,0,0,0-.16,0Z"/>
    <ellipse cx="9.59" cy="11.54" rx="0.67" ry="0.7"/>
    <path d="M15.1,9.7a.29.29,0,0,1,.3.3v6a.29.29,0,0,1-.3.3H5.83a.3.3,0,0,1-.3-.3V10a.3.3,0,0,1,.3-.3H15.1m0-.7H5.83a1,1,0,0,0-1,1v6a1,1,0,0,0,1,1H15.1a1,1,0,0,0,1-1V10a1,1,0,0,0-1-1Z"/>
    <polygon class="cls-1" points="21 5.82 20.96 5.82 21 5.86 21 5.82"/>
    <path class="cls-1" d="M21,16.3V5.86H.4V21H16.3"/>
    <polygon class="cls-1" points="16.01 0.4 4.77 0.4 0.43 5.82 20.96 5.82 16.01 0.4"/>
    <path d="M20,16.7a3.31,3.31,0,1,1-2.33,1,3.24,3.24,0,0,1,2.33-1m0-.7a4,4,0,1,0,2.83,1.17A4,4,0,0,0,20,16Z"/>
    <path d="M21.46,20.28,21.75,19a.15.15,0,0,0-.15-.18H19.22l-.06-.27a.14.14,0,0,0-.14-.12H18.4a.15.15,0,0,0-.15.15v.1a.15.15,0,0,0,.15.14h.42l.43,2.09a.35.35,0,0,0-.17.3.34.34,0,0,0,.34.34.35.35,0,0,0,.34-.34.33.33,0,0,0-.11-.25h1.28a.36.36,0,0,0-.1.25.34.34,0,0,0,.34.34.35.35,0,0,0,.34-.34.34.34,0,0,0-.19-.31l0-.15a.15.15,0,0,0-.14-.18H19.58l0-.19h1.78A.16.16,0,0,0,21.46,20.28Z"/>
</svg>