<svg id="jkit-icon" xmlns="http://www.w3.org/2000/svg" viewBox="0 0 24 24"><defs><style>.cls-1,.cls-2,.cls-3{fill:none;stroke:#000;stroke-linejoin:round;}.cls-1,.cls-2{stroke-width:0.7px;}.cls-2{stroke-linecap:round;}.cls-3{stroke-width:0.8px;fill-rule:evenodd;}</style></defs><path d="M20.11,7.7a.29.29,0,0,1,.3.3V20a.29.29,0,0,1-.3.3h-16a.3.3,0,0,1-.3-.3V8a.3.3,0,0,1,.3-.3h16m0-.7h-16a1,1,0,0,0-1,1V20a1,1,0,0,0,1,1h16a1,1,0,0,0,1-1V8a1,1,0,0,0-1-1Z"/><polyline class="cls-1" points="16.21 12.11 16.21 18 7.79 18 7.79 12.11"/><polygon class="cls-2" points="16.21 12.12 7.79 12.12 9.58 10 14.17 10 16.21 12.12"/><path class="cls-3" d="M22.54,4.1H16.29L14.88.5H9.12L7.71,4.1H1.46a1,1,0,0,0-1,1V22.53a1,1,0,0,0,1,1H22.54a1,1,0,0,0,1-1V5.08A1,1,0,0,0,22.54,4.1Z"/><polyline class="cls-3" points="23.31 4.5 23.31 4.5 22.31 2 15.31 2"/><polyline class="cls-3" points="0.71 4.5 0.71 4.5 1.71 2 8.71 2"/></svg>