<svg xmlns="http://www.w3.org/2000/svg" viewBox="0 0 23.8 23.8"><defs><style>.cls-1{fill:none;stroke:#000;stroke-linecap:round;stroke-linejoin:round;stroke-width:0.8px;}</style></defs><g id="Layer_2" data-name="Layer 2"><g id="jkit-icon"><polyline class="cls-1" points="23.4 23.4 0.4 23.4 0.4 0.4"/><path d="M6.66,9.71a.2.2,0,0,1,.2.2V23h-3v-13a.2.2,0,0,1,.2-.2h2.6m0-.8H4.06a1,1,0,0,0-1,1V23.75h4.6V9.91a1,1,0,0,0-1-1Z"/><line class="cls-1" x1="3.36" y1="7.25" x2="7.36" y2="7.25"/><path d="M13.66,14.79a.2.2,0,0,1,.2.2v8h-3V15a.2.2,0,0,1,.2-.2h2.6m0-.8h-2.6a1,1,0,0,0-1,1v8.76h4.6V15a1,1,0,0,0-1-1Z"/><path d="M20.66,5.7a.2.2,0,0,1,.2.2V23h-3V5.9a.2.2,0,0,1,.2-.2h2.6m0-.8h-2.6a1,1,0,0,0-1,1V23.75h4.6V5.9a1,1,0,0,0-1-1Z"/><line class="cls-1" x1="10.36" y1="12.4" x2="14.36" y2="12.4"/><line class="cls-1" x1="17.36" y1="3.4" x2="21.36" y2="3.4"/></g></g></svg>