<svg viewBox="0 0 24 4.97734" xmlns="http://www.w3.org/2000/svg"><path d="m.5 2.48867h7.12367" fill="none" stroke="#000" stroke-linecap="round" stroke-linejoin="round"/><path d="m16.37633 2.48867h7.12367" fill="none" stroke="#000" stroke-linecap="round" stroke-linejoin="round"/><path d="m10.32041 4.20762q.22617-.16869.52606-.38986c.19951-.14744.40151-.29739.60477-.45233q.30552-.23241.6052-.45233.29988-.22118.526-.39069-.19242-.15745-.48648-.384-.29427-.22617-.61061-.47566-.31676-.24866-.61061-.47482-.29422-.2262-.48644-.38493a.5837.5837 0 0 1 -.147-.3732.4145.4145 0 0 1 .12451-.3048.42744.42744 0 0 1 .31655-.125.72218.72218 0 0 1 .24864.05665 3.22117 3.22117 0 0 1 .25449.19826q.198.16368.48065.379.283.21492.59395.464.31115.24866.594.46316c.18827.14328.34862.26824.48066.3732.13162.10579.21658.1741.25449.20409a.49436.49436 0 0 1 .21492.39569.53025.53025 0 0 1 -.18118.37319q-.2824.20369-.63894.469-.35611.26615-.71807.5373c-.24157.1816-.479.3582-.71265.53231q-.35049.2599-.63352.46316a.66621.66621 0 0 1 -.28281.06831.43988.43988 0 0 1 -.31655-.11913.39565.39565 0 0 1 -.12454-.29989.586.586 0 0 1 .12451-.35068z"/></svg>