<svg id="jkit-icon" xmlns="http://www.w3.org/2000/svg" viewBox="0 0 24 24"><defs><style>.cls-1,.cls-2{fill:none;stroke:#000;stroke-linecap:round;stroke-linejoin:round;}.cls-1{stroke-width:0.6px;}.cls-2{stroke-width:0.8px;}</style></defs><path d="M7,15.85a.4.4,0,0,1,.4.4V17a.4.4,0,0,1-.4.4H6.22a.4.4,0,0,1-.4-.4v-.75a.4.4,0,0,1,.4-.4H7m0-.6H6.22a1,1,0,0,0-1,1V17a1,1,0,0,0,1,1H7a1,1,0,0,0,1-1v-.75a1,1,0,0,0-1-1Z"/><path d="M11.1,15.85a.4.4,0,0,1,.4.4V17a.4.4,0,0,1-.4.4h-.75A.4.4,0,0,1,10,17v-.75a.4.4,0,0,1,.4-.4h.75m0-.6h-.75a1,1,0,0,0-1,1V17a1,1,0,0,0,1,1h.75a1,1,0,0,0,1-1v-.75a1,1,0,0,0-1-1Z"/><path d="M15.22,15.85a.4.4,0,0,1,.4.4V17a.4.4,0,0,1-.4.4h-.75a.4.4,0,0,1-.4-.4v-.75a.4.4,0,0,1,.4-.4h.75m0-.6h-.75a1,1,0,0,0-1,1V17a1,1,0,0,0,1,1h.75a1,1,0,0,0,1-1v-.75a1,1,0,0,0-1-1Z"/><polyline class="cls-1" points="6.55 14.45 6.55 12.38 14.8 12.38 14.8 14.45"/><polygon class="cls-2" points="21 5.82 20.96 5.82 21 5.86 21 5.82"/><polyline class="cls-2" points="21 16.3 21 5.86 0.4 5.86 0.4 21 16.3 21"/><polygon class="cls-2" points="16.01 0.4 4.77 0.4 0.43 5.82 20.96 5.82 16.01 0.4"/><path d="M20,16.7a3.31,3.31,0,1,1-2.33,1,3.24,3.24,0,0,1,2.33-1m0-.7a4,4,0,1,0,2.83,1.17A4,4,0,0,0,20,16Z"/><path d="M21.46,20.28,21.75,19a.15.15,0,0,0-.15-.18H19.22l-.06-.27a.14.14,0,0,0-.14-.12H18.4a.15.15,0,0,0-.15.15v.1a.15.15,0,0,0,.15.14h.42l.43,2.09a.35.35,0,0,0-.17.3.34.34,0,0,0,.34.34.35.35,0,0,0,.34-.34.33.33,0,0,0-.11-.25h1.28a.36.36,0,0,0-.1.25.34.34,0,0,0,.34.34.35.35,0,0,0,.34-.34.34.34,0,0,0-.19-.31l0-.15a.15.15,0,0,0-.14-.18H19.58l0-.19h1.78A.16.16,0,0,0,21.46,20.28Z"/><path d="M11.1,7.6a.4.4,0,0,1,.4.4v.75a.4.4,0,0,1-.4.4h-.75a.4.4,0,0,1-.4-.4V8a.4.4,0,0,1,.4-.4h.75m0-.6h-.75a1,1,0,0,0-1,1v.75a1,1,0,0,0,1,1h.75a1,1,0,0,0,1-1V8a1,1,0,0,0-1-1Z"/><line class="cls-1" x1="10.72" y1="14.5" x2="10.72" y2="10.53"/></svg>