<svg id="jkit-icon" xmlns="http://www.w3.org/2000/svg" viewBox="0 0 24 24"><defs><style>.cls-1{fill:none;stroke:#000;stroke-linecap:round;stroke-miterlimit:10;stroke-width:0.7px;}</style></defs><path class="cls-1" d="M20.28,16.31v-15a1,1,0,0,0-1-1H1.36a1,1,0,0,0-1,1v18.9a1,1,0,0,0,1,1H16.18"/><path d="M20,16.7a3.31,3.31,0,1,1-2.33,1,3.24,3.24,0,0,1,2.33-1m0-.7a4,4,0,1,0,2.83,1.17A4,4,0,0,0,20,16Z"/><path d="M21.46,20.28,21.75,19a.15.15,0,0,0-.15-.18H19.22l-.06-.27a.14.14,0,0,0-.14-.12H18.4a.15.15,0,0,0-.15.15v.1a.15.15,0,0,0,.15.14h.42l.43,2.09a.35.35,0,0,0-.17.3.34.34,0,0,0,.34.34.35.35,0,0,0,.34-.34.33.33,0,0,0-.11-.25h1.28a.36.36,0,0,0-.1.25.34.34,0,0,0,.34.34.35.35,0,0,0,.34-.34.34.34,0,0,0-.19-.31l0-.15a.15.15,0,0,0-.14-.18H19.58l0-.19h1.78A.16.16,0,0,0,21.46,20.28Z"/><path d="M16.69,3.76H4.11a1,1,0,0,0-.71.29,1,1,0,0,0-.29.72V15.23A1,1,0,0,0,3.4,16a1,1,0,0,0,.71.29H16.69A1,1,0,0,0,17.4,16a1,1,0,0,0,.29-.72V4.77a1,1,0,0,0-.29-.72A1,1,0,0,0,16.69,3.76ZM4.11,4.63H16.69a.12.12,0,0,1,.1,0,.14.14,0,0,1,.05.1V6.08H4V4.77a.14.14,0,0,1,0-.1A.12.12,0,0,1,4.11,4.63ZM16.69,15.37H4.11a.12.12,0,0,1-.1,0,.14.14,0,0,1,0-.1V7H16.84v8.28a.14.14,0,0,1-.05.1A.12.12,0,0,1,16.69,15.37Zm-3-6.53a3.41,3.41,0,0,1-1,2.36,3.26,3.26,0,0,1-4.66,0,3.41,3.41,0,0,1-1-2.36.44.44,0,0,1,.13-.31.41.41,0,0,1,.6,0A.44.44,0,0,1,8,8.84a2.46,2.46,0,0,0,.71,1.74,2.39,2.39,0,0,0,3.44,0,2.46,2.46,0,0,0,.71-1.74A.44.44,0,0,1,13,8.53a.41.41,0,0,1,.6,0,.44.44,0,0,1,.13.31Z"/></svg>