<svg viewBox="0 0 24 24" xmlns="http://www.w3.org/2000/svg"><path d="m8.11621 9.18408-.12793.71192h-1.47949l-.85645 4.84765h-.91211l.85645-4.84765h-1.48828l.12793-.71192z"/><path d="m12.05664 10.728a1.63416 1.63416 0 0 1 .49121 1.248 2.829 2.829 0 0 1 -.04.43946 3.83924 3.83924 0 0 1 -.11133.43164h-3.3682a1.22779 1.22779 0 0 0 -.00781.16894.99228.99228 0 0 0 .292.752 1.057 1.057 0 0 0 .76367.27929 1.28417 1.28417 0 0 0 1.14356-.61523h.98437a2.52457 2.52457 0 0 1 -.89551.99512 2.44244 2.44244 0 0 1 -1.36816.38867 2.08016 2.08016 0 0 1 -.96875-.21582 1.56052 1.56052 0 0 1 -.64747-.62007 1.86719 1.86719 0 0 1 -.23242-.94824 2.76574 2.76574 0 0 1 .04883-.4961 2.89255 2.89255 0 0 1 .4873-1.19628 2.52255 2.52255 0 0 1 .916-.7959 2.59393 2.59393 0 0 1 1.19628-.28028 1.84128 1.84128 0 0 1 1.31643.4648zm-.44434 1.25586a.87926.87926 0 0 0 -.292-.69629 1.10567 1.10567 0 0 0 -.75586-.25586 1.37539 1.37539 0 0 0 -.87988.31152 1.56573 1.56573 0 0 0 -.53613.84863h2.44727c.01075-.09665.0166-.165.0166-.20797z"/><path d="m15.27637 12.50342 1.02441 2.24023h-1.03223l-.6875-1.49609-1.16015 1.49609h-.95215l1.80762-2.168-1.03125-2.24023h1.03125l.68847 1.49609 1.16016-1.49606h.95215z"/><path d="m18.25977 13.52a1.28907 1.28907 0 0 0 -.01563.14355.28162.28162 0 0 0 .10352.24414.59776.59776 0 0 0 .34472.07618h.55962l-.13574.75976h-.7207a1.31764 1.31764 0 0 1 -.80762-.21191.7946.7946 0 0 1 -.28027-.67578 1.69781 1.69781 0 0 1 .03222-.33594l.43164-2.44043h-.51953l.12793-.74414h.52832l.19141-1.0957h.91992l-.1914 1.0957h1.06342l-.12793.74414h-1.07129z"/><g fill="none" stroke="#000" stroke-width=".8"><path d="m0 5.52776h4.5" stroke-linejoin="round"/><path d="m.4 5.27776v4.5" stroke-miterlimit="5"/><path d="m24 5.52776h-4.5" stroke-linejoin="round"/><path d="m23.6 5.27776v4.5" stroke-miterlimit="5"/><path d="m0 18.47224h4.5" stroke-linejoin="round"/><path d="m.4 18.72224v-4.5" stroke-miterlimit="5"/><path d="m24 18.47224h-4.5" stroke-linejoin="round"/><path d="m23.6 18.72224v-4.5" stroke-miterlimit="5"/><path d="m9 5.52776h6" stroke-linejoin="round"/><path d="m9 18.5h6" stroke-linejoin="round"/></g></svg>