<svg xmlns="http://www.w3.org/2000/svg" viewBox="0 0 24 23.18"><defs><style>.cls-1{fill-rule:evenodd;}</style></defs><g id="Layer_2" data-name="Layer 2"><g id="jkit-icon"><path d="M13.6.8a3.68,3.68,0,0,1,2.62,1.08,3.72,3.72,0,0,1,0,5.24,3.72,3.72,0,0,1-5.24,0,3.72,3.72,0,0,1,0-5.24A3.68,3.68,0,0,1,13.6.8m0-.8a4.5,4.5,0,1,0,3.18,1.32A4.48,4.48,0,0,0,13.6,0Z"/><path d="M15.24,4.86H14V6.1h-.76V4.86H12V4.15h1.26V2.9H14V4.15h1.26Z"/><path d="M17.45,20.92a.63.63,0,0,1,.63.63.63.63,0,0,1-1.26,0,.63.63,0,0,1,.63-.63m0-1a1.63,1.63,0,1,0,1.63,1.63,1.63,1.63,0,0,0-1.63-1.63Z"/><path d="M9.69,20.92a.63.63,0,0,1,.62.63.63.63,0,1,1-.62-.63m0-1a1.63,1.63,0,1,0,1.62,1.63,1.63,1.63,0,0,0-1.62-1.63Z"/><path class="cls-1" d="M18,4.5a3.81,3.81,0,0,0,0-.59,4.07,4.07,0,0,0,0-.5h5.48a.55.55,0,0,1,.43.21.58.58,0,0,1,.11.46l-2.46,10.8a.55.55,0,0,1-.53.43H7l.52,2.23H21a.55.55,0,0,1,.55.55.55.55,0,0,1-.55.54H7.09a.54.54,0,0,1-.53-.42l-.74-3.14a.84.84,0,0,1-.08-.19L4.51,9.48,2.57,1.18h-2A.55.55,0,0,1,0,.63.54.54,0,0,1,.55.09H3a.54.54,0,0,1,.53.42l.68,2.9H9.3a4.07,4.07,0,0,0,0,.5,5.65,5.65,0,0,0,0,.59H4.5L5.58,9.24l1.16,5H20.56L22.77,4.5Z"/></g></g></svg>