<svg xmlns="http://www.w3.org/2000/svg" viewBox="0 0 24 24">
    <defs>
        <style>.cls-1{fill-rule:evenodd;}.cls-2{fill:none;stroke:#000;stroke-linecap:round;stroke-linejoin:round;stroke-width:0.8px;}</style>
    </defs>
    <g id="Layer_2" data-name="Layer 2">
        <g id="magnitude-icon">
            <path class="cls-1" d="M10.18,8l-.25,0a5,5,0,0,0-2,.71A5.28,5.28,0,0,0,6.3,10.4a5.42,5.42,0,0,0-.71,2,8.42,8.42,0,0,0,0,1.23,5.66,5.66,0,0,0,.47,1.56,4.74,4.74,0,0,0,1,1.34,5,5,0,0,0,2.3,1.32,5.42,5.42,0,0,0,1.06.15,4.92,4.92,0,0,0,3.16-1,6,6,0,0,0,.92-.9,5.05,5.05,0,0,0,1-2.09,3.8,3.8,0,0,0,.09-1,4.54,4.54,0,0,0-.17-1.34.42.42,0,0,0-.78-.12c-.06.13-.06.18,0,.41a2.45,2.45,0,0,1,.08.37,4.56,4.56,0,0,1,0,1.11,4.15,4.15,0,0,1-3.27,3.64A4.27,4.27,0,0,1,7.61,16,4.5,4.5,0,0,1,7,15.12,4.16,4.16,0,0,1,9.67,9a4.23,4.23,0,0,1,1.84,0,4.46,4.46,0,0,1,1.25.52.55.55,0,0,0,.4.13A.42.42,0,0,0,13.48,9a.69.69,0,0,0-.29-.26,4.91,4.91,0,0,0-1.95-.71A9.75,9.75,0,0,0,10.18,8ZM15,8.89c-.05,0-.83.78-2.24,2.2l-2.17,2.17-.73-.73a4.62,4.62,0,0,0-.8-.74.36.36,0,0,0-.32,0,.4.4,0,0,0-.22.46c0,.09.06.13.93,1a11.89,11.89,0,0,0,1,.94.4.4,0,0,0,.34,0s.8-.76,2.43-2.39c2.49-2.49,2.39-2.39,2.39-2.56a.44.44,0,0,0-.23-.37A.47.47,0,0,0,15,8.89Z"/>
            <polygon class="cls-2" points="21 5.82 20.96 5.82 21 5.86 21 5.82"/>
            <polyline class="cls-2" points="21 16.3 21 5.86 0.4 5.86 0.4 21 16.3 21"/>
            <polygon class="cls-2" points="16.01 0.4 4.77 0.4 0.43 5.82 20.96 5.82 16.01 0.4"/>
            <path d="M20,16.7a3.24,3.24,0,0,1,2.33,1,3.29,3.29,0,0,1,0,4.66A3.3,3.3,0,1,1,20,16.7m0-.7a4,4,0,1,0,2.83,1.17A4,4,0,0,0,20,16Z"/>
            <path d="M21.46,20.28,21.75,19a.15.15,0,0,0-.15-.18H19.22l-.06-.27a.14.14,0,0,0-.14-.12H18.4a.15.15,0,0,0-.15.15v.1a.15.15,0,0,0,.15.14h.42l.43,2.09a.35.35,0,0,0-.17.3.34.34,0,0,0,.34.34.35.35,0,0,0,.34-.34.33.33,0,0,0-.11-.25h1.28a.36.36,0,0,0-.1.25.34.34,0,0,0,.34.34.35.35,0,0,0,.34-.34.34.34,0,0,0-.19-.31l0-.15a.15.15,0,0,0-.14-.18H19.58l0-.19h1.78A.16.16,0,0,0,21.46,20.28Z"/>
        </g>
    </g>
</svg>
