<svg id="jkit-icon" xmlns="http://www.w3.org/2000/svg" viewBox="0 0 24 24"><path d="M16.47156,11.34808l.00531.0066.02154-.00129.01068.00165L23.2,15.58722v4.72693a.12633.12633,0,0,1-.0177.05853.38376.38376,0,0,1-.108.11816.79982.79982,0,0,1-.24213.12165,1.1136,1.1136,0,0,1-.33221.05H1.5a.97435.97435,0,0,1-.5744-.1717A.27866.27866,0,0,1,.8,20.31415V18.37006l5.15436-4.71228.04443-.00757.01544.00073L9.90509,16.755l.551.43958.50543-.49127,5.51-5.35523m.02685-.79467a.97467.97467,0,0,0-.1192.00726.85134.85134,0,0,0-.41028.16034L10.404,16.12964l-3.99-3.18323a.92015.92015,0,0,0-.41516-.09619q-.0369,0-.07385.00281a.86187.86187,0,0,0-.456.16461L0,18.01752v2.29663a1.03253,1.03253,0,0,0,.43933.81195A1.75928,1.75928,0,0,0,1.5,21.46252h21a1.90553,1.90553,0,0,0,.574-.08746,1.59312,1.59312,0,0,0,.48663-.249,1.182,1.182,0,0,0,.32519-.37256A.91983.91983,0,0,0,24,20.31415V15.14667l-7.16553-4.53241a.94233.94233,0,0,0-.33606-.06085Z"/><path d="M23,3.27936a.20023.20023,0,0,1,.2.2V20.52063a.20023.20023,0,0,1-.2.2H1a.20023.20023,0,0,1-.2-.2V3.47937a.20023.20023,0,0,1,.2-.2H23m0-.8H1a1,1,0,0,0-1,1V20.52063a1,1,0,0,0,1,1H23a1,1,0,0,0,1-1V3.47937a1,1,0,0,0-1-1Z"/><path d="M4,6.32941a1.15,1.15,0,1,1-.81317.33679A1.14233,1.14233,0,0,1,4,6.32941m0-.6a1.75,1.75,0,1,0,1.23743.51257A1.74435,1.74435,0,0,0,4,5.72937Z"/><circle cx="4" cy="7.4794" r="0.70711"/><path d="M11,9.32941a1.15,1.15,0,1,1-.81317.33679A1.14233,1.14233,0,0,1,11,9.32941m0-.6a1.75,1.75,0,1,0,1.23743.51257A1.74435,1.74435,0,0,0,11,8.72937Z"/><circle cx="11" cy="10.4794" r="0.70711"/><path d="M20,5.32941a1.15,1.15,0,1,1-.81317.33679A1.14233,1.14233,0,0,1,20,5.32941m0-.6a1.75,1.75,0,1,0,1.23743.51257A1.74435,1.74435,0,0,0,20,4.72937Z"/><circle cx="20" cy="6.4794" r="0.70711"/></svg>