<svg id="jkit-icon" xmlns="http://www.w3.org/2000/svg" viewBox="0 0 24 24"><defs><style>.cls-1{fill:none;stroke:#000;stroke-miterlimit:10;stroke-width:0.7px;}</style></defs><rect x="8.34121" y="2.52812" width="13" height="0.94372" rx="0.47186"/><rect class="cls-1" x="6.34121" y="0.64068" width="17" height="4.7186" rx="1"/><rect x="8.34121" y="11.52811" width="13" height="0.94372" rx="0.47186"/><rect class="cls-1" x="6.34121" y="9.64067" width="17" height="4.7186" rx="1"/><rect x="8.34121" y="20.52811" width="13" height="0.94372" rx="0.47186"/><rect class="cls-1" x="6.34121" y="18.64067" width="17" height="4.7186" rx="1"/><path d="M1.92118,1.77881A1.22116,1.22116,0,1,1,.7,3,1.22256,1.22256,0,0,1,1.92118,1.77881m0-.7A1.92117,1.92117,0,1,0,3.84233,3,1.92122,1.92122,0,0,0,1.92118,1.0788Z"/><path d="M1.92118,10.77887A1.22113,1.22113,0,1,1,.7,12a1.2225,1.2225,0,0,1,1.22119-1.22113m0-.7A1.92114,1.92114,0,1,0,3.84233,12a1.92121,1.92121,0,0,0-1.92115-1.92114Z"/><path d="M1.92118,19.77887A1.22113,1.22113,0,1,1,.7,21a1.2225,1.2225,0,0,1,1.22119-1.22113m0-.7A1.92114,1.92114,0,1,0,3.84233,21a1.92121,1.92121,0,0,0-1.92115-1.92114Z"/><line class="cls-1" x1="1.84234" y1="4.5" x2="1.84234" y2="10.5"/><line class="cls-1" x1="1.84234" y1="13.5" x2="1.84234" y2="19.5"/></svg>