<svg id="magnitude-icon"
    xmlns="http://www.w3.org/2000/svg" viewBox="0 0 24 24">
    <defs>
        <style>.cls-1{fill-rule:evenodd;}</style>
    </defs>
    <path d="M20,1.75A3.21,3.21,0,0,1,23.2,5a3.2,3.2,0,1,1-5.46-2.26A3.15,3.15,0,0,1,20,1.75M20,1a4,4,0,1,0,2.83,1.17A4,4,0,0,0,20,1Z"/>
    <path d="M21.45,5.27H20.34v1.1h-.68V5.27H18.55V4.64h1.11V3.53h.68V4.64h1.11Z"/>
    <path d="M16.48,20.8a.63.63,0,1,1-.63.63.63.63,0,0,1,.63-.63m0-1a1.63,1.63,0,1,0,1.62,1.63,1.63,1.63,0,0,0-1.62-1.63Z"/>
    <path d="M8.74,20.8a.63.63,0,1,1-.62.63.63.63,0,0,1,.62-.63m0-1a1.63,1.63,0,1,0,1.62,1.63A1.62,1.62,0,0,0,8.74,19.8Z"/>
    <path class="cls-1" d="M21,8.3l-1.51,7.25A.52.52,0,0,1,19,16H6.44l.45,2.13H19a.57.57,0,0,1,0,1.14H6.49A.54.54,0,0,1,6,18.82l-.65-3.08a.41.41,0,0,1-.08-.19l-1.1-5.31L2.4,2.1H.6a.55.55,0,0,1-.51-.58A.55.55,0,0,1,.6,1H2.81a.53.53,0,0,1,.5.44l.6,2.83H16.07a5.44,5.44,0,0,0,.22,1.15H4.19l1,4.61,1,4.87H18.58l1.35-6.47h.24A3.84,3.84,0,0,0,21,8.3Z"/>
</svg>