<svg viewBox="0 0 24 24" xmlns="http://www.w3.org/2000/svg"><g fill="none" stroke="#000" stroke-width=".7"><path d="m20.436 9.775v-7.604h-19.712v20.276h13.334" stroke-linecap="round" stroke-linejoin="round"/><path d="m16.89642 17.42105h6.3964m-3.65508-3.1982.91377-.91377m-2.74132 9.13771h5.48263m-3.1982-8.68079-3.13816 3.13818a1.13441 1.13441 0 0 0 -.30529.37572.45649.45649 0 0 0 0 .28236 1.13442 1.13442 0 0 0 .30529.37574l2.10437 2.10437a2.2702 2.2702 0 0 0 .75142.61058.91378.91378 0 0 0 .56474 0 2.27031 2.27031 0 0 0 .75144-.61058l1.58746-1.58749a2.27 2.27 0 0 0 .6106-.75144.91368.91368 0 0 0 0-.56471 2.2701 2.2701 0 0 0 -.6106-.75146z" stroke-linecap="round" stroke-linejoin="round"/><path d="m13.82284 16.57542v3.1155h-6.48592v-3.1155h1.15208v-8.55474h-1.40823v2.43161h-3.0297v-5.525h13.05762v5.525h-3.02969v-2.43161h-2.11173l.7035 1.23664v7.3181z" stroke-miterlimit="10"/></g></svg>