<svg id="magnitude-icon"
    xmlns="http://www.w3.org/2000/svg" viewBox="0 0 24 24">
    <defs>
        <style>.cls-1{fill:none;stroke-width:0.8px;}.cls-1,.cls-2{stroke:#000;stroke-linecap:round;stroke-linejoin:round;}.cls-2{stroke-width:0.3px;}</style>
    </defs>
    <polygon class="cls-1" points="21 5.82 20.96 5.82 21 5.86 21 5.82"/>
    <path class="cls-1" d="M21,16.3V5.86H.4V21H16.3"/>
    <polygon class="cls-1" points="16.01 0.4 4.77 0.4 0.43 5.82 20.96 5.82 16.01 0.4"/>
    <path d="M20,16.7a3.31,3.31,0,1,1-2.33,1,3.24,3.24,0,0,1,2.33-1m0-.7a4,4,0,1,0,2.83,1.17A4,4,0,0,0,20,16Z"/>
    <path d="M21.46,20.28,21.75,19a.15.15,0,0,0-.15-.18H19.22l-.06-.27a.14.14,0,0,0-.14-.12H18.4a.15.15,0,0,0-.15.15v.1a.15.15,0,0,0,.15.14h.42l.43,2.09a.35.35,0,0,0-.17.3.34.34,0,0,0,.34.34.35.35,0,0,0,.34-.34.33.33,0,0,0-.11-.25h1.28a.36.36,0,0,0-.1.25.34.34,0,0,0,.34.34.35.35,0,0,0,.34-.34.34.34,0,0,0-.19-.31l0-.15a.15.15,0,0,0-.14-.18H19.58l0-.19h1.78A.16.16,0,0,0,21.46,20.28Z"/>
    <polygon class="cls-2" points="4.77 10.25 5.26 11.75 6.84 11.75 5.56 12.68 6.05 14.18 4.77 13.25 3.5 14.18 3.99 12.68 2.71 11.75 4.29 11.75 4.77 10.25"/>
    <polygon class="cls-2" points="10.77 10.25 11.26 11.75 12.84 11.75 11.56 12.68 12.05 14.18 10.77 13.25 9.5 14.18 9.99 12.68 8.71 11.75 10.29 11.75 10.77 10.25"/>
    <polygon class="cls-2" points="16.77 10.25 17.26 11.75 18.84 11.75 17.56 12.68 18.05 14.18 16.77 13.25 15.5 14.18 15.99 12.68 14.71 11.75 16.29 11.75 16.77 10.25"/>
</svg>