<svg id="magnitude-icon"
    xmlns="http://www.w3.org/2000/svg" viewBox="0 0 24 24">
    <defs>
        <style>.cls-1{fill:none;stroke:#000;stroke-linecap:round;stroke-linejoin:round;stroke-width:0.8px;}</style>
    </defs>
    <line class="cls-1" x1="2.56" y1="12" x2="7.5" y2="12"/>
    <line class="cls-1" x1="13.56" y1="12" x2="18.5" y2="12"/>
    <polygon class="cls-1" points="21 5.82 20.96 5.82 21 5.86 21 5.82"/>
    <path class="cls-1" d="M21,16.3V5.86H.4V21H16.3"/>
    <polygon class="cls-1" points="16.01 0.4 4.77 0.4 0.43 5.82 20.96 5.82 16.01 0.4"/>
    <path d="M9.56,13.19l.37-.27.41-.31c.15-.11.29-.21.42-.32l.37-.27-.34-.26-.42-.33L10,11.1l-.34-.27a.39.39,0,0,1-.1-.26.28.28,0,0,1,.08-.21.29.29,0,0,1,.22-.08l.17,0,.18.14a3.47,3.47,0,0,0,.33.26l.42.33.41.32.33.26.18.14A.33.33,0,0,1,12,12a.37.37,0,0,1-.12.26l-.44.32-.5.38-.49.37-.44.32a.51.51,0,0,1-.2,0,.29.29,0,0,1-.22-.08.26.26,0,0,1-.09-.21A.4.4,0,0,1,9.56,13.19Z"/>
    <path d="M20,16.7a3.31,3.31,0,1,1-2.33,1,3.24,3.24,0,0,1,2.33-1m0-.7a4,4,0,1,0,2.83,1.17A4,4,0,0,0,20,16Z"/>
    <path d="M21.46,20.28,21.75,19a.15.15,0,0,0-.15-.18H19.22l-.06-.27a.14.14,0,0,0-.14-.12H18.4a.15.15,0,0,0-.15.15v.1a.15.15,0,0,0,.15.14h.42l.43,2.09a.35.35,0,0,0-.17.3.34.34,0,0,0,.34.34.35.35,0,0,0,.34-.34.33.33,0,0,0-.11-.25h1.28a.36.36,0,0,0-.1.25.34.34,0,0,0,.34.34.35.35,0,0,0,.34-.34.34.34,0,0,0-.19-.31l0-.15a.15.15,0,0,0-.14-.18H19.58l0-.19h1.78A.16.16,0,0,0,21.46,20.28Z"/>
</svg>