<svg xmlns="http://www.w3.org/2000/svg" viewBox="0 0 20.35 24"><defs><style>.cls-1{fill:none;stroke:#000;stroke-linecap:round;stroke-linejoin:round;stroke-width:0.8px;}</style></defs><g id="Layer_2" data-name="Layer 2"><g id="jkit-icon"><path d="M12.44.8a.2.2,0,0,1,.2.2V23a.2.2,0,0,1-.2.2H8.18A.2.2,0,0,1,8,23V1a.2.2,0,0,1,.2-.2h4.26m0-.8H8.18a1,1,0,0,0-1,1V23a1,1,0,0,0,1,1h4.26a1,1,0,0,0,1-1V1a1,1,0,0,0-1-1Z"/><polyline class="cls-1" points="5.68 23.48 4.12 23.48 4.12 5.48 5.68 5.48"/><polyline class="cls-1" points="1.96 23.48 0.4 23.48 0.4 11.48 1.96 11.48"/><line class="cls-1" x1="16.4" y1="20.75" x2="16.4" y2="11.28"/><line class="cls-1" x1="10.4" y1="20.75" x2="10.4" y2="8.5"/><line class="cls-1" x1="19.95" y1="20.75" x2="19.95" y2="4.5"/></g></g></svg>