<svg xmlns="http://www.w3.org/2000/svg" viewBox="0 0 23.39996 23.9"><defs><style>.cls-1,.cls-2{fill:none;stroke:#000;stroke-width:0.8px;}.cls-1{stroke-linecap:round;}</style></defs><g id="Layer_2" data-name="Layer 2"><g id="jkit-icon"><path d="M19.4,16.6a3.3,3.3,0,1,1-2.33344.96655A3.27823,3.27823,0,0,1,19.4,16.6m0-.7a4,4,0,1,0,2.82843,1.17157A3.98756,3.98756,0,0,0,19.4,15.9Z"/><path d="M20.859,20.17538l.28725-1.26389a.14584.14584,0,0,0-.14221-.17816H18.61739l-.0557-.27228a.14583.14583,0,0,0-.14287-.11661h-.623a.14583.14583,0,0,0-.14583.14584v.09722a.14583.14583,0,0,0,.14583.14583h.42464l.42685,2.08685a.34031.34031,0,1,0,.40739.052h1.2739A.34019.34019,0,1,0,20.715,20.809l.03353-.14751a.14584.14584,0,0,0-.14221-.17816h-1.631l-.03977-.19444h1.78126A.14584.14584,0,0,0,20.859,20.17538Z"/><path class="cls-1" d="M15.9,9.4V4.9a4.5,4.5,0,0,0-9,0V9.4"/><path class="cls-2" d="M21.9604,16.85264,20.85328,5.49235A1.15366,1.15366,0,0,0,19.66914,4.5H3.07863a1.15321,1.15321,0,0,0-1.18451.99566L.40449,21.317A1.13206,1.13206,0,0,0,1.58894,22.5H16.90962"/><line class="cls-2" x1="21.72318" y1="14.40822" x2="22.03677" y2="17.39178"/></g></g></svg>