<svg id="magnitude-icon"
    xmlns="http://www.w3.org/2000/svg" viewBox="0 0 24 24">
    <defs>
        <style>.cls-1{fill:none;stroke:#000;stroke-linecap:round;stroke-linejoin:round;stroke-width:0.8px;}</style>
    </defs>
    <polygon class="cls-1" points="21 5.82 20.96 5.82 21 5.86 21 5.82"/>
    <path class="cls-1" d="M21,16.3V5.86H.4V21H16.3"/>
    <polygon class="cls-1" points="16.01 0.4 4.77 0.4 0.43 5.82 20.96 5.82 16.01 0.4"/>
    <path d="M8.59,14.58a2.21,2.21,0,0,1-1.36.54V16H6.59v-.87a4.29,4.29,0,0,1-1.1-.22,2.32,2.32,0,0,1-.83-.44L5,13.68a2.92,2.92,0,0,0,.7.4,3.67,3.67,0,0,0,.87.2V12.7a6.94,6.94,0,0,1-.93-.29A1.66,1.66,0,0,1,5,11.93a1.24,1.24,0,0,1-.25-.82A1.43,1.43,0,0,1,5.24,10a2.2,2.2,0,0,1,1.35-.54V8.6h.64v.87a4.17,4.17,0,0,1,.87.15,3.28,3.28,0,0,1,.73.33l-.32.8a3.41,3.41,0,0,0-1.28-.43v1.59a5.65,5.65,0,0,1,.95.3,1.68,1.68,0,0,1,.63.46,1.28,1.28,0,0,1,.25.83A1.45,1.45,0,0,1,8.59,14.58ZM6,11.48a1.62,1.62,0,0,0,.59.27v-1.4a1,1,0,0,0-.6.25.63.63,0,0,0-.2.46A.49.49,0,0,0,6,11.48ZM7.85,14a.56.56,0,0,0,.2-.45.52.52,0,0,0-.21-.43,1.66,1.66,0,0,0-.61-.27v1.39A1.15,1.15,0,0,0,7.85,14Z"/>
    <path d="M11.51,9.54v5.52h-1V10.4H9.32V9.54Z"/>
    <path d="M16.22,10.17a3,3,0,0,1,.63,2,3.51,3.51,0,0,1-.34,1.58,2.36,2.36,0,0,1-1,1,2.83,2.83,0,0,1-1.41.34,3.38,3.38,0,0,1-.8-.09,2.26,2.26,0,0,1-.65-.26l.38-.77a1.85,1.85,0,0,0,1,.27,1.64,1.64,0,0,0,1.25-.49,2,2,0,0,0,.44-1.41h0a1.47,1.47,0,0,1-.62.43,2.26,2.26,0,0,1-.85.15,2.19,2.19,0,0,1-1-.21,1.59,1.59,0,0,1-.68-.6,1.62,1.62,0,0,1-.24-.89,1.75,1.75,0,0,1,.26-.94,1.7,1.7,0,0,1,.73-.62,2.25,2.25,0,0,1,1-.22A2.23,2.23,0,0,1,16.22,10.17Zm-.87,1.71a.89.89,0,0,0,.31-.68.84.84,0,0,0-.31-.67,1.25,1.25,0,0,0-.83-.26,1.16,1.16,0,0,0-.78.25.87.87,0,0,0-.3.69.85.85,0,0,0,.3.68,1.18,1.18,0,0,0,.8.25A1.25,1.25,0,0,0,15.35,11.88Z"/>
    <path d="M20,16.7a3.31,3.31,0,1,1-2.33,1,3.24,3.24,0,0,1,2.33-1m0-.7a4,4,0,1,0,2.83,1.17A4,4,0,0,0,20,16Z"/>
    <path d="M21.46,20.28,21.75,19a.15.15,0,0,0-.15-.18H19.22l-.06-.27a.14.14,0,0,0-.14-.12H18.4a.15.15,0,0,0-.15.15v.1a.15.15,0,0,0,.15.14h.42l.43,2.09a.35.35,0,0,0-.17.3.34.34,0,0,0,.34.34.35.35,0,0,0,.34-.34.33.33,0,0,0-.11-.25h1.28a.36.36,0,0,0-.1.25.34.34,0,0,0,.34.34.35.35,0,0,0,.34-.34.34.34,0,0,0-.19-.31l0-.15a.15.15,0,0,0-.14-.18H19.58l0-.19h1.78A.16.16,0,0,0,21.46,20.28Z"/>
</svg>