<svg id="jkit-icon" xmlns="http://www.w3.org/2000/svg" viewBox="0 0 24 24"><defs><style>.cls-1,.cls-2{fill:none;stroke:#000;stroke-linejoin:round;stroke-width:0.6px;}.cls-2{stroke-linecap:round;}</style></defs><path d="M10,.6a.4.4,0,0,1,.4.4v9a.4.4,0,0,1-.4.4H1A.4.4,0,0,1,.6,10V1A.4.4,0,0,1,1,.6h9M10,0H1A1,1,0,0,0,0,1v9a1,1,0,0,0,1,1h9a1,1,0,0,0,1-1V1a1,1,0,0,0-1-1Z"/><polyline class="cls-1" points="8.5 4.15 8.5 8.35 2.5 8.35 2.5 4.15"/><polygon class="cls-2" points="8.5 4.16 2.5 4.16 3.77 2.65 7.04 2.65 8.5 4.16"/><path d="M10,13.6a.4.4,0,0,1,.4.4v9a.4.4,0,0,1-.4.4H1A.4.4,0,0,1,.6,23V14a.4.4,0,0,1,.4-.4h9m0-.6H1a1,1,0,0,0-1,1v9a1,1,0,0,0,1,1h9a1,1,0,0,0,1-1V14a1,1,0,0,0-1-1Z"/><polyline class="cls-1" points="8.5 17.15 8.5 21.35 2.5 21.35 2.5 17.15"/><polygon class="cls-2" points="8.5 17.16 2.5 17.16 3.77 15.65 7.04 15.65 8.5 17.16"/><path d="M23,.6a.4.4,0,0,1,.4.4v9a.4.4,0,0,1-.4.4H14a.4.4,0,0,1-.4-.4V1A.4.4,0,0,1,14,.6h9M23,0H14a1,1,0,0,0-1,1v9a1,1,0,0,0,1,1h9a1,1,0,0,0,1-1V1a1,1,0,0,0-1-1Z"/><polyline class="cls-1" points="21.5 4.15 21.5 8.35 15.5 8.35 15.5 4.15"/><polygon class="cls-2" points="21.5 4.16 15.5 4.16 16.77 2.65 20.05 2.65 21.5 4.16"/><path d="M23,13.6a.4.4,0,0,1,.4.4v9a.4.4,0,0,1-.4.4H14a.4.4,0,0,1-.4-.4V14a.4.4,0,0,1,.4-.4h9m0-.6H14a1,1,0,0,0-1,1v9a1,1,0,0,0,1,1h9a1,1,0,0,0,1-1V14a1,1,0,0,0-1-1Z"/><polyline class="cls-1" points="21.5 17.15 21.5 21.35 15.5 21.35 15.5 17.15"/><polygon class="cls-2" points="21.5 17.16 15.5 17.16 16.77 15.65 20.05 15.65 21.5 17.16"/></svg>