<svg xmlns="http://www.w3.org/2000/svg" viewBox="0 0 23.96665 24"><defs><style>.cls-1{fill:none;stroke:#000;stroke-linecap:round;stroke-miterlimit:10;stroke-width:0.7px;}</style></defs><g id="Layer_2" data-name="Layer 2"><g id="jkit-icon"><path d="M10.60693,4.08359a1.92425,1.92425,0,1,1-1.36072.5636,1.91163,1.91163,0,0,1,1.36072-.5636m0-.8a2.72432,2.72432,0,1,0,1.92633.79794,2.71582,2.71582,0,0,0-1.92633-.79794Z"/><path d="M10.60686,9.33072a4.55452,4.55452,0,0,1,4.70282,4.341H10.60686l-4.70275-.01556a4.556,4.556,0,0,1,4.70275-4.32547m0-.8a5.3429,5.3429,0,0,0-5.50274,5.12232.8.8,0,0,0,.79736.80313l4.70276.01556h4.70544a.8.8,0,0,0,.8-.8,5.33721,5.33721,0,0,0-5.50281-5.141Z"/><path class="cls-1" d="M20.25,16.30558V1.34524A.987.987,0,0,0,19.27131.35H1.32869A.987.987,0,0,0,.35,1.34524V20.25476a.98708.98708,0,0,0,.97869.99524H16.14911"/><path d="M19.96667,16.7a3.3,3.3,0,1,1-2.33344.96655A3.27823,3.27823,0,0,1,19.96667,16.7m0-.7a4,4,0,1,0,2.82843,1.17157A3.98745,3.98745,0,0,0,19.96667,16Z"/><path d="M21.42573,20.27538l.28725-1.26389a.14584.14584,0,0,0-.14221-.17816H19.18408l-.0557-.27228a.14583.14583,0,0,0-.14287-.11661h-.623a.14583.14583,0,0,0-.14583.14584v.09722a.14583.14583,0,0,0,.14583.14583h.42464l.42685,2.08685a.34031.34031,0,1,0,.40739.052h1.2739a.34019.34019,0,1,0,.38645-.06322l.03352-.14751a.14584.14584,0,0,0-.14221-.17816H19.542l-.03977-.19444h1.78126A.14583.14583,0,0,0,21.42573,20.27538Z"/><rect x="11.38333" y="16.30026" width="2.33333" height="0.79974" rx="0.39987" transform="translate(25.1 33.40026) rotate(-180)"/><rect x="5.21667" y="16.3" width="5" height="0.79974" rx="0.39987" transform="translate(15.43333 33.39974) rotate(-180)"/></g></g></svg>